<svg width="116" height="110" viewBox="0 0 116 110" fill="none" xmlns="http://www.w3.org/2000/svg">
<path d="M48.6002 108.006C46.1246 103.951 35.5567 86.8981 32.4643 86.442C29.4507 85.9975 18.7415 103.24 15.8447 108.006H48.6002Z" fill="#2E353A" stroke="#2E353A" stroke-linecap="round" stroke-linejoin="round"/>
<path d="M62.1519 8.36572V47.6905" stroke="#2E353A" stroke-width="3" stroke-linecap="round" stroke-linejoin="round"/>
<path d="M66.4946 9.4209V47.6902" stroke="#2E353A" stroke-width="3" stroke-linecap="round" stroke-linejoin="round"/>
<path d="M71.2554 30.3628V67.4303" stroke="#2E353A" stroke-width="3" stroke-linecap="round" stroke-linejoin="round"/>
<path d="M76.2964 9.4209V67.4301" stroke="#2E353A" stroke-width="3" stroke-linecap="round" stroke-linejoin="round"/>
<path d="M81.3369 9.4209V48.7457" stroke="#2E353A" stroke-width="3" stroke-linecap="round" stroke-linejoin="round"/>
<path d="M58.3726 13.6372H81.4785" stroke="#2E353A" stroke-width="3" stroke-linecap="round" stroke-linejoin="round"/>
<path d="M58.3726 22.3774H83.4296" stroke="#2E353A" stroke-width="3" stroke-linecap="round" stroke-linejoin="round"/>
<path d="M57.9541 30.3628H85.8182" stroke="#2E353A" stroke-width="3" stroke-linecap="round" stroke-linejoin="round"/>
<path d="M57.5322 39.2544H85.8175" stroke="#2E353A" stroke-width="3" stroke-linecap="round" stroke-linejoin="round"/>
<path d="M62.853 48.895H84.2769" stroke="#2E353A" stroke-width="3" stroke-linecap="round" stroke-linejoin="round"/>
<path d="M68.4541 58.2373H82.4568" stroke="#2E353A" stroke-width="3" stroke-linecap="round" stroke-linejoin="round"/>
<path d="M31.5894 12.0996L36.5323 16.2634" stroke="#2E353A" stroke-width="2" stroke-linecap="round" stroke-linejoin="round"/>
<path d="M41.4756 7.70752L43.1957 10.4824" stroke="#2E353A" stroke-width="2" stroke-linecap="round" stroke-linejoin="round"/>
<path d="M50.2881 1L51.7935 6.08775" stroke="#2E353A" stroke-width="2" stroke-linecap="round" stroke-linejoin="round"/>
<path d="M78.4887 66.3802H70.3365V45.5233H59.2767V8.58447C54.6156 8.63399 50.0446 9.97287 46.0033 12.4724C41.962 14.9719 38.5861 18.5481 36.2003 22.857C33.8145 27.166 32.4989 32.0629 32.3799 37.0771C32.261 42.0912 33.3428 47.054 35.5213 51.4883C36.4072 53.7076 38.4887 59.1433 40.5729 66.1726C42.4995 72.6609 43.505 79.1844 43.505 80.1698C43.505 80.2663 43.505 80.3657 43.505 80.4622C43.4955 80.7555 43.541 81.0478 43.6387 81.3218C43.7364 81.5958 43.8844 81.8459 44.0738 82.057C44.2632 82.2682 44.4902 82.4362 44.7412 82.551C44.9922 82.6658 45.2621 82.7251 45.5349 82.7253H73.5919C73.8646 82.7247 74.1343 82.6652 74.3852 82.5502C74.636 82.4352 74.8628 82.2672 75.0521 82.0561C75.2415 81.845 75.3895 81.5952 75.4873 81.3214C75.5852 81.0475 75.6309 80.7554 75.6218 80.4622C75.6218 80.3569 75.6218 80.2575 75.6218 80.1698C75.6164 79.1961 76.6028 72.7984 78.4887 66.3802Z" fill="#6A5AE0" stroke="#2E353A" stroke-width="2" stroke-linecap="round" stroke-linejoin="round"/>
<path d="M50.0679 13.2984C50.8542 12.9169 51.6609 12.5859 52.4836 12.3071" stroke="#2E353A" stroke-width="2" stroke-linecap="round" stroke-linejoin="round"/>
<path d="M41.019 20.7078C41.019 20.7078 43.2337 16.9066 48.1006 14.3481" stroke="#2E353A" stroke-width="2" stroke-linecap="round" stroke-linejoin="round"/>
<path d="M41.6001 62.79C42.6082 66.3339 43.9425 71.2433 44.4044 73.986C45.1871 78.6118 44.6762 81.0036 46.361 81.4159" stroke="#2E353A" stroke-width="2" stroke-linecap="round" stroke-linejoin="round"/>
<path d="M40.3667 58.562C40.3667 58.562 40.6384 59.5123 41.0759 60.9685" stroke="#2E353A" stroke-width="2" stroke-linecap="round" stroke-linejoin="round"/>
<path d="M57.8424 82.4421V54.4887C57.8424 54.4887 58.9293 47.1787 55.3967 47.1787C51.8641 47.1787 52.1359 50.9799 56.212 55.0735C60.288 59.1671 66.538 55.3659 67.3533 52.1495C68.1685 48.9331 65.9946 47.4711 64.6359 50.1027C63.2772 52.7343 64.6359 82.5591 64.6359 82.5591" stroke="#2E353A" stroke-width="2" stroke-linecap="round" stroke-linejoin="round"/>
<path d="M74.3019 82.5562H44.9785V89.8778H74.3019V82.5562Z" fill="white" stroke="#2E353A" stroke-width="2" stroke-linecap="round" stroke-linejoin="round"/>
<path d="M74.3019 91.6206H44.9785V98.9423H74.3019V91.6206Z" fill="white" stroke="#2E353A" stroke-width="2" stroke-linecap="round" stroke-linejoin="round"/>
<path d="M74.3019 89.8779H44.9785V91.6206H74.3019V89.8779Z" fill="#2E353A" stroke="#2E353A" stroke-linecap="round" stroke-linejoin="round"/>
<path d="M74.3019 100.685H44.9785V108.006H74.3019V100.685Z" fill="white" stroke="#2E353A" stroke-width="2" stroke-linecap="round" stroke-linejoin="round"/>
<path d="M71.2334 88.8984H73.4127" stroke="#2E353A" stroke-linecap="round" stroke-linejoin="round"/>
<path d="M46.1309 88.8984H70.1852" stroke="#2E353A" stroke-linecap="round" stroke-linejoin="round"/>
<path d="M65.5815 98.106H72.606" stroke="#2E353A" stroke-linecap="round" stroke-linejoin="round"/>
<path d="M50.4839 98.106H64.7746" stroke="#2E353A" stroke-linecap="round" stroke-linejoin="round"/>
<path d="M48.1436 98.106H49.3528" stroke="#2E353A" stroke-linecap="round" stroke-linejoin="round"/>
<path d="M74.3019 98.9424H44.9785V100.685H74.3019V98.9424Z" fill="#2E353A" stroke="#2E353A" stroke-linecap="round" stroke-linejoin="round"/>
<path d="M58.8344 102.29H48.7964V107.913H58.8344V102.29Z" fill="#6A5AE0" stroke="#2E353A" stroke-linecap="round" stroke-linejoin="round"/>
<path d="M71.8969 102.29H61.8589V107.913H71.8969V102.29Z" fill="#6A5AE0" stroke="#2E353A" stroke-linecap="round" stroke-linejoin="round"/>
<path d="M80.9263 108.006C79.0024 106.191 70.7877 98.556 68.3964 98.3572C66.054 98.1555 57.7388 105.878 55.4888 108.006H80.9263Z" fill="#2E353A" stroke="#2E353A" stroke-linecap="round" stroke-linejoin="round"/>
<path d="M112.641 108.006H115" stroke="#2E353A" stroke-linecap="round" stroke-linejoin="round"/>
<path d="M4.66846 108.006H110.283" stroke="#2E353A" stroke-linecap="round" stroke-linejoin="round"/>
<path d="M1 108.006H2.83424" stroke="#2E353A" stroke-linecap="round" stroke-linejoin="round"/>
<path d="M107.894 91.3188H100.842V101.962H103.763H107.894H110.818V96.6405L107.894 91.3188Z" fill="#2E353A" stroke="#2E353A" stroke-linecap="round" stroke-linejoin="round"/>
<path d="M110.818 101.962H107.587V104.381H110.818V101.962Z" fill="white" stroke="#2E353A" stroke-linecap="round" stroke-linejoin="round"/>
<path d="M95.6008 101.842C95.6008 101.842 99.1334 99.7956 97.9105 89.5617L93.4268 86.9301L85.6823 85.6143L78.7529 85.9067V90.1465C78.7529 90.1465 82.6931 93.8014 83.1008 94.971C83.3564 95.7715 83.4939 96.6102 83.5084 97.4564V101.55L95.6008 101.842Z" fill="#6A5AE0" stroke="#2E353A" stroke-linecap="round" stroke-linejoin="round"/>
<path d="M97.9109 89.562L95.6011 101.843" stroke="#2E353A" stroke-linecap="round" stroke-linejoin="round"/>
<path d="M93.4267 86.9302L90.8452 101.843" stroke="#2E353A" stroke-linecap="round" stroke-linejoin="round"/>
<path d="M85.682 85.6143L83.7798 96.7254" stroke="#2E353A" stroke-linecap="round" stroke-linejoin="round"/>
<path d="M79.0249 89.562C79.0249 89.562 83.5086 91.6088 85.2749 92.9246C87.0412 94.2404 86.7695 97.0182 86.7695 97.0182" stroke="#2E353A" stroke-linecap="round" stroke-linejoin="round"/>
<path d="M100.905 102.039H79.8369V103.939H100.905V102.039Z" fill="white" stroke="#2E353A" stroke-linecap="round" stroke-linejoin="round"/>
<path d="M105.112 97.1643H109.511L107.15 92.7783H105.112V97.1643Z" fill="white" stroke="#2E353A" stroke-linecap="round" stroke-linejoin="round"/>
<path d="M104.432 92.7783H102.53V97.1643H104.432V92.7783Z" fill="white" stroke="#2E353A" stroke-linecap="round" stroke-linejoin="round"/>
<path d="M92.7748 101.962H79.9487V105.258H92.7748V101.962Z" fill="white" stroke="#2E353A" stroke-linecap="round" stroke-linejoin="round"/>
<path d="M104.925 107.953C106.392 107.668 107.366 106.158 107.101 104.58C106.836 103.002 105.432 101.954 103.966 102.239C102.499 102.524 101.525 104.034 101.79 105.612C102.055 107.19 103.459 108.238 104.925 107.953Z" fill="#2E353A" stroke="#2E353A" stroke-linecap="round" stroke-linejoin="round"/>
<path d="M104.44 106.799C105.309 106.799 106.013 106.041 106.013 105.106C106.013 104.171 105.309 103.413 104.44 103.413C103.571 103.413 102.867 104.171 102.867 105.106C102.867 106.041 103.571 106.799 104.44 106.799Z" fill="white" stroke="#2E353A" stroke-linecap="round" stroke-linejoin="round"/>
<path d="M84.1282 107.959C85.5956 107.679 86.5746 106.173 86.3148 104.594C86.055 103.015 84.6548 101.961 83.1873 102.241C81.7199 102.52 80.7409 104.027 81.0007 105.606C81.2605 107.185 82.6607 108.239 84.1282 107.959Z" fill="#2E353A" stroke="#2E353A" stroke-linecap="round" stroke-linejoin="round"/>
<path d="M83.652 106.799C84.5209 106.799 85.2254 106.041 85.2254 105.106C85.2254 104.171 84.5209 103.413 83.652 103.413C82.783 103.413 82.0786 104.171 82.0786 105.106C82.0786 106.041 82.783 106.799 83.652 106.799Z" fill="white" stroke="#2E353A" stroke-linecap="round" stroke-linejoin="round"/>
<path d="M91.9922 107.232C93.0899 106.147 93.1626 104.311 92.1546 103.129C91.1467 101.948 89.4397 101.87 88.342 102.955C87.2443 104.039 87.1716 105.876 88.1796 107.057C89.1875 108.238 90.8945 108.317 91.9922 107.232Z" fill="#2E353A" stroke="#2E353A" stroke-linecap="round" stroke-linejoin="round"/>
<path d="M90.1661 106.799C91.0351 106.799 91.7395 106.041 91.7395 105.106C91.7395 104.171 91.0351 103.413 90.1661 103.413C89.2972 103.413 88.5928 104.171 88.5928 105.106C88.5928 106.041 89.2972 106.799 90.1661 106.799Z" fill="white" stroke="#2E353A" stroke-linecap="round" stroke-linejoin="round"/>
<path d="M89.2826 96.8716H82.4891C82.0014 96.8716 81.606 97.297 81.606 97.8219V100.892C81.606 101.417 82.0014 101.842 82.4891 101.842H89.2826C89.7703 101.842 90.1657 101.417 90.1657 100.892V97.8219C90.1657 97.297 89.7703 96.8716 89.2826 96.8716Z" fill="#2E353A" stroke="#2E353A" stroke-linecap="round" stroke-linejoin="round"/>
<path d="M78.2095 101.843V87.3838H80.9269V101.843" stroke="#2E353A" stroke-linecap="round" stroke-linejoin="round"/>
<path d="M78.2285 89.2988H80.897" stroke="#2E353A" stroke-linecap="round" stroke-linejoin="round"/>
<path d="M78.2285 91.5562H80.897" stroke="#2E353A" stroke-linecap="round" stroke-linejoin="round"/>
<path d="M78.2285 93.8135H80.897" stroke="#2E353A" stroke-linecap="round" stroke-linejoin="round"/>
<path d="M78.2285 96.0737H80.897" stroke="#2E353A" stroke-linecap="round" stroke-linejoin="round"/>
<path d="M78.2285 98.3311H80.897" stroke="#2E353A" stroke-linecap="round" stroke-linejoin="round"/>
<path d="M78.2285 100.588H80.897" stroke="#2E353A" stroke-linecap="round" stroke-linejoin="round"/>
<path d="M23.8586 108.29H18.9673V16.4766L23.8586 22.5965V108.29Z" stroke="#2E353A" stroke-linecap="round" stroke-linejoin="round"/>
<path d="M19.0166 88.9918H23.8128L19.0166 84.0005H23.8128L19.0166 88.9918Z" stroke="#2E353A" stroke-linecap="round" stroke-linejoin="round"/>
<path d="M19.0166 83.8751H23.8128L19.0166 78.8838H23.8128L19.0166 83.8751Z" stroke="#2E353A" stroke-linecap="round" stroke-linejoin="round"/>
<path d="M19.0166 78.7579H23.8128L19.0166 73.7666H23.8128L19.0166 78.7579Z" stroke="#2E353A" stroke-linecap="round" stroke-linejoin="round"/>
<path d="M19.0166 73.6407H23.8128L19.0166 68.6494H23.8128L19.0166 73.6407Z" stroke="#2E353A" stroke-linecap="round" stroke-linejoin="round"/>
<path d="M19.0166 68.524H23.8128L19.0166 63.5327H23.8128L19.0166 68.524Z" stroke="#2E353A" stroke-linecap="round" stroke-linejoin="round"/>
<path d="M19.0166 63.4068H23.8128L19.0166 58.4155H23.8128L19.0166 63.4068Z" stroke="#2E353A" stroke-linecap="round" stroke-linejoin="round"/>
<path d="M19.0166 58.2896H23.8128L19.0166 53.2983H23.8128L19.0166 58.2896Z" stroke="#2E353A" stroke-linecap="round" stroke-linejoin="round"/>
<path d="M19.0166 53.1729H23.8128L19.0166 48.1816H23.8128L19.0166 53.1729Z" stroke="#2E353A" stroke-linecap="round" stroke-linejoin="round"/>
<path d="M19.0166 48.0557H23.8128L19.0166 43.0645H23.8128L19.0166 48.0557Z" stroke="#2E353A" stroke-linecap="round" stroke-linejoin="round"/>
<path d="M19.0166 42.939H23.8128L19.0166 37.9478H23.8128L19.0166 42.939Z" stroke="#2E353A" stroke-linecap="round" stroke-linejoin="round"/>
<path d="M19.0166 37.8218H23.8128L19.0166 32.8306H23.8128L19.0166 37.8218Z" stroke="#2E353A" stroke-linecap="round" stroke-linejoin="round"/>
<path d="M19.0166 32.7046H23.8128L19.0166 27.7134H23.8128L19.0166 32.7046Z" stroke="#2E353A" stroke-linecap="round" stroke-linejoin="round"/>
<path d="M19.0166 27.5879H23.8128L19.0166 22.5967H23.8128L19.0166 27.5879Z" stroke="#2E353A" stroke-linecap="round" stroke-linejoin="round"/>
<path d="M46.5682 27.7254L44.1987 26.1201H27.2884L25.2231 27.7254H46.5682Z" stroke="#2E353A" stroke-linecap="round" stroke-linejoin="round"/>
<path d="M46.9591 27.5879H5.65479V28.7575H46.9591V27.5879Z" fill="#2E353A" stroke="#2E353A" stroke-linecap="round" stroke-linejoin="round"/>
<path d="M44.1983 26.1199L18.9673 16.4766L27.2879 26.1199" stroke="#2E353A" stroke-linecap="round" stroke-linejoin="round"/>
<path d="M18.97 16.4766L5.65479 27.5877" stroke="#2E353A" stroke-linecap="round" stroke-linejoin="round"/>
<path d="M27.3943 30.0732H17.2041V37.0908H27.3943V30.0732Z" fill="#2E353A" stroke="#2E353A" stroke-linecap="round" stroke-linejoin="round"/>
<path d="M25.2686 31.5352H19.3257V33.582H25.2686V31.5352Z" fill="white" stroke="#2E353A" stroke-linecap="round" stroke-linejoin="round"/>
<path d="M46.9595 28.7573V41.3656" stroke="#2E353A" stroke-linecap="round" stroke-linejoin="round"/>
<path d="M48.5083 45.6729H45.4893V49.3542H48.5083V45.6729Z" fill="#2E353A" stroke="#2E353A" stroke-linecap="round" stroke-linejoin="round"/>
<path d="M45.4893 45.6728L47.0001 41.126L48.511 45.6728" stroke="#2E353A" stroke-linecap="round" stroke-linejoin="round"/>
<path d="M38.8155 90.0971L45.3372 101.191L46.9677 99.9071L42.1688 89.5795C41.9531 89.1153 41.6214 88.7249 41.211 88.4522C40.8006 88.1795 40.3277 88.0352 39.8454 88.0356C39.624 88.04 39.4076 88.1078 39.2186 88.2319C39.0295 88.3561 38.8746 88.5321 38.7698 88.742C38.6649 88.9519 38.6139 89.1881 38.6219 89.4262C38.6299 89.6644 38.6968 89.8959 38.8155 90.0971Z" fill="#6A5AE0" stroke="#2E353A" stroke-linecap="round" stroke-linejoin="round"/>
<path d="M46.3943 98.4624L39.6851 103.597C39.6851 103.597 40.2829 106.322 44.1579 106.161C48.0329 106 47.8861 101.67 47.8861 101.67L46.3943 98.4624Z" fill="#2E353A" stroke="white" stroke-linecap="round" stroke-linejoin="round"/>
<path d="M27.7583 95.0942L39.9105 89.2023C40.3113 89.0083 40.7617 88.9677 41.1869 89.0874C41.612 89.2071 41.9863 89.4798 42.2474 89.8602C42.4 90.0824 42.5096 90.3351 42.5699 90.6036C42.6302 90.8721 42.6398 91.1509 42.5983 91.4235C42.5567 91.696 42.4648 91.9569 42.328 92.1906C42.1912 92.4243 42.0123 92.6262 41.8018 92.7842L28.5056 102.799L27.7583 95.0942Z" fill="#6A5AE0" stroke="#2E353A" stroke-linecap="round" stroke-linejoin="round"/>
<path d="M25.9703 102.313H13.4458V104.398H25.9703V102.313Z" fill="white" stroke="#2E353A" stroke-linecap="round" stroke-linejoin="round"/>
<path d="M19.8563 96.3774H8.97314V101.19H19.8563V96.3774Z" fill="#2E353A" stroke="#2E353A" stroke-linecap="round" stroke-linejoin="round"/>
<path d="M18.441 90.9214H27.6801C27.8963 90.9214 28.1037 91.0138 28.2566 91.1783C28.4094 91.3428 28.4953 91.5659 28.4953 91.7986V101.185H17.623V91.7986C17.623 91.6831 17.6442 91.5688 17.6854 91.4622C17.7265 91.3556 17.7868 91.2588 17.8628 91.1773C17.9388 91.0958 18.029 91.0312 18.1282 90.9873C18.2274 90.9434 18.3337 90.921 18.441 90.9214Z" fill="#6A5AE0" stroke="#2E353A" stroke-linecap="round" stroke-linejoin="round"/>
<path d="M8.86154 108.006H26.6795C27.2423 108.006 27.7821 107.766 28.1802 107.337C28.5782 106.909 28.8018 106.328 28.8018 105.723C28.8018 105.117 28.5782 104.536 28.1803 104.107C27.7824 103.678 27.2426 103.437 26.6795 103.436H8.86154C8.29843 103.437 7.75862 103.678 7.36069 104.107C6.96277 104.536 6.73926 105.117 6.73926 105.723C6.73926 106.328 6.96285 106.909 7.36086 107.337C7.75886 107.766 8.29868 108.006 8.86154 108.006Z" fill="#2E353A" stroke="#2E353A" stroke-linecap="round" stroke-linejoin="round"/>
<path d="M11.5464 108.006H29.3616C29.9247 108.006 30.4648 107.766 30.8632 107.338C31.2617 106.909 31.4859 106.329 31.4866 105.723C31.4866 105.116 31.2627 104.535 30.8642 104.106C30.4657 103.677 29.9252 103.436 29.3616 103.436H11.5464C10.9828 103.436 10.4423 103.677 10.0438 104.106C9.64527 104.535 9.42139 105.116 9.42139 105.723C9.42211 106.329 9.64631 106.909 10.0447 107.338C10.4432 107.766 10.9833 108.006 11.5464 108.006Z" fill="white" stroke="#2E353A" stroke-linecap="round" stroke-linejoin="round"/>
<path d="M28.503 101.19H8.97314V102.796H28.503V101.19Z" fill="white" stroke="#2E353A" stroke-linecap="round" stroke-linejoin="round"/>
<path d="M13.0002 105.723C13.0002 106.008 12.9215 106.288 12.774 106.525C12.6265 106.763 12.4168 106.948 12.1715 107.057C11.9262 107.167 11.6563 107.195 11.3959 107.139C11.1355 107.084 10.8963 106.946 10.7086 106.744C10.5209 106.542 10.393 106.285 10.3412 106.005C10.2894 105.724 10.316 105.434 10.4176 105.17C10.5192 104.906 10.6913 104.68 10.912 104.522C11.1328 104.363 11.3923 104.278 11.6578 104.278C12.0138 104.278 12.3553 104.431 12.607 104.701C12.8588 104.972 13.0002 105.34 13.0002 105.723Z" fill="#2E353A" stroke="#2E353A" stroke-linecap="round" stroke-linejoin="round"/>
<path d="M15.2364 107.167C15.9778 107.167 16.5788 106.521 16.5788 105.723C16.5788 104.925 15.9778 104.278 15.2364 104.278C14.4951 104.278 13.894 104.925 13.894 105.723C13.894 106.521 14.4951 107.167 15.2364 107.167Z" fill="#2E353A" stroke="#2E353A" stroke-linecap="round" stroke-linejoin="round"/>
<path d="M18.8126 107.167C19.554 107.167 20.155 106.521 20.155 105.723C20.155 104.925 19.554 104.278 18.8126 104.278C18.0712 104.278 17.4702 104.925 17.4702 105.723C17.4702 106.521 18.0712 107.167 18.8126 107.167Z" fill="#2E353A" stroke="#2E353A" stroke-linecap="round" stroke-linejoin="round"/>
<path d="M23.7336 105.723C23.7336 106.008 23.6549 106.288 23.5074 106.525C23.3599 106.763 23.1502 106.948 22.9049 107.057C22.6596 107.167 22.3897 107.195 22.1293 107.139C21.8689 107.084 21.6297 106.946 21.442 106.744C21.2543 106.542 21.1264 106.285 21.0746 106.005C21.0228 105.724 21.0494 105.434 21.151 105.17C21.2526 104.906 21.4247 104.68 21.6454 104.522C21.8662 104.363 22.1257 104.278 22.3912 104.278C22.7472 104.278 23.0887 104.431 23.3404 104.701C23.5922 104.972 23.7336 105.34 23.7336 105.723Z" fill="#2E353A" stroke="#2E353A" stroke-linecap="round" stroke-linejoin="round"/>
<path d="M27.3127 105.723C27.3127 106.008 27.234 106.288 27.0865 106.525C26.939 106.763 26.7293 106.948 26.484 107.057C26.2387 107.167 25.9688 107.195 25.7084 107.139C25.448 107.084 25.2088 106.946 25.0211 106.744C24.8334 106.542 24.7055 106.285 24.6537 106.005C24.6019 105.724 24.6285 105.434 24.7301 105.17C24.8317 104.906 25.0038 104.68 25.2245 104.522C25.4453 104.363 25.7048 104.278 25.9703 104.278C26.3263 104.278 26.6678 104.431 26.9195 104.701C27.1713 104.972 27.3127 105.34 27.3127 105.723Z" fill="#2E353A" stroke="#2E353A" stroke-linecap="round" stroke-linejoin="round"/>
<path d="M30.8889 105.723C30.8889 106.009 30.8101 106.288 30.6625 106.526C30.5148 106.763 30.305 106.948 30.0596 107.058C29.8141 107.167 29.5441 107.195 29.2836 107.139C29.0231 107.083 28.7839 106.945 28.5963 106.743C28.4087 106.541 28.2811 106.283 28.2296 106.003C28.1781 105.722 28.205 105.432 28.3071 105.168C28.4091 104.904 28.5816 104.679 28.8027 104.52C29.0238 104.362 29.2836 104.278 29.5492 104.278C29.7254 104.278 29.8998 104.316 30.0625 104.388C30.2252 104.461 30.373 104.567 30.4975 104.702C30.6219 104.836 30.7205 104.995 30.7877 105.17C30.8549 105.345 30.8892 105.533 30.8889 105.723Z" fill="#2E353A" stroke="#2E353A" stroke-linecap="round" stroke-linejoin="round"/>
<path d="M41.3261 90.9218C41.3261 90.7626 41.2822 90.607 41.2 90.4747C41.1177 90.3424 41.0009 90.2394 40.8642 90.1786C40.7275 90.1178 40.5771 90.1021 40.432 90.1333C40.287 90.1646 40.1539 90.2415 40.0495 90.3542C39.9451 90.467 39.8741 90.6105 39.8456 90.7667C39.817 90.9229 39.8322 91.0846 39.8892 91.2315C39.9462 91.3784 40.0424 91.5038 40.1656 91.5918C40.2889 91.6798 40.4336 91.7265 40.5815 91.7259C40.6795 91.7259 40.7766 91.705 40.8671 91.6646C40.9576 91.6242 41.0398 91.5649 41.109 91.4902C41.1782 91.4155 41.233 91.3268 41.2702 91.2293C41.3075 91.1317 41.3265 91.0272 41.3261 90.9218Z" fill="#2E353A" stroke="#2E353A" stroke-linecap="round" stroke-linejoin="round"/>
<path d="M26.8641 92.2056H18.9619V97.3401H26.8641V92.2056Z" fill="white" stroke="#2E353A" stroke-linecap="round" stroke-linejoin="round"/>
<path d="M26.8644 92.2056H22.541V97.3401H26.8644V92.2056Z" fill="white" stroke="#2E353A" stroke-linecap="round" stroke-linejoin="round"/>
</svg>
