<svg width="203" height="203" viewBox="0 0 203 203" fill="none" xmlns="http://www.w3.org/2000/svg">
<path d="M176.375 50.2306C178.286 50.2306 179.835 48.6819 179.835 46.7714C179.835 44.861 178.286 43.3123 176.375 43.3123C174.465 43.3123 172.916 44.861 172.916 46.7714C172.916 48.6819 174.465 50.2306 176.375 50.2306Z" fill="#D5DFEB"/>
<path opacity="0.15" d="M125.383 25.6932L25.6933 125.383C11.5033 139.573 11.5033 162.58 25.6933 176.77C39.8832 190.96 62.8898 190.96 77.0798 176.77L176.77 77.0797C190.96 62.8897 190.96 39.8832 176.77 25.6932C162.58 11.5032 139.573 11.5032 125.383 25.6932Z" fill="#F7AFA3"/>
<path d="M164.923 59.0239V62.0034C165.042 73.8343 163.665 85.6328 160.824 97.1183C160.722 97.5252 160.621 97.9176 160.504 98.3101C159.013 103.866 157.033 109.279 154.589 114.487L154.109 115.49C153.223 117.321 152.263 119.138 151.202 120.896L151.057 121.143L150.49 122.088C147.625 126.866 144.258 131.324 140.447 135.387C137.648 138.36 134.599 141.088 131.334 143.541C128.427 145.866 124.445 147.436 123.05 151.244C121.849 154.218 121.818 157.536 122.962 160.531C124.779 164.427 129.823 165.197 133.558 165.996C137.293 166.796 143.805 168.031 142.002 173.263C140.97 176.272 137.642 176.432 134.895 176.432H86.5394C83.8505 176.432 80.464 176.272 79.4321 173.263C79.3043 172.906 79.2166 172.536 79.1705 172.159C78.5746 167.799 84.4755 166.665 87.8911 165.924C91.6264 165.124 96.6117 164.354 98.4866 160.459C98.9982 159.363 99.2943 158.178 99.3586 156.971C99.4338 155.031 99.1277 153.095 98.4575 151.273C97.0041 147.465 93.1525 145.852 90.1148 143.57C86.8549 141.117 83.8109 138.389 81.0163 135.416C77.2053 131.353 73.8385 126.895 70.9731 122.117L70.29 121.158L70.1447 120.911C69.1128 119.138 68.1535 117.335 67.2378 115.504L66.7582 114.501C64.324 109.293 62.3542 103.88 60.8718 98.3246C60.7701 97.9322 60.6538 97.5252 60.5521 97.1328C57.7345 85.6395 56.3818 73.8361 56.5261 62.0034V59.0239C56.5261 56.2061 57.6454 53.5036 59.6379 51.5112C61.6304 49.5187 64.3328 48.3993 67.1506 48.3993H154.356C157.164 48.4147 159.852 49.5408 161.832 51.5316C163.812 53.5225 164.923 56.2161 164.923 59.0239Z" fill="white"/>
<path d="M108.311 171.737C109.307 171.739 110.293 171.537 111.208 171.142C112.122 170.747 112.946 170.169 113.627 169.442C114.309 168.716 114.833 167.857 115.169 166.919C115.505 165.981 115.644 164.984 115.578 163.991C115.215 158.685 114.009 153.104 116.276 148.003C118.703 142.596 124.008 139.384 128.252 135.547C148.469 117.263 154.022 90.0545 155.155 64.0817C155.33 60.0121 153.789 55.8699 148.935 55.8699H63.4438C62.8572 55.8638 62.2759 55.9802 61.7369 56.2117C61.1979 56.4432 60.7131 56.7847 60.3137 57.2143C59.9142 57.6438 59.6088 58.152 59.417 58.7064C59.2252 59.2607 59.1512 59.849 59.1998 60.4336C60.1997 77.1592 64.0945 93.5844 70.7109 108.978C73.7973 116.127 77.8515 122.817 82.7599 128.861C87.0039 133.977 92.9339 137.582 97.3814 142.683C103.326 149.427 102.803 155.982 101.916 164.485C101.553 167.973 102.861 171.752 107.047 171.752L108.311 171.737Z" fill="#D5DFEB"/>
<path d="M133.456 178.67H85.0854C82.6291 178.67 77.513 178.67 75.9288 174.034C75.7528 173.535 75.631 173.018 75.5654 172.493V172.362C74.8678 166.258 82.1349 164.688 85.6522 163.932L86.8731 163.671C90.1433 162.988 93.8496 162.217 95.0559 159.601C95.4396 158.74 95.6519 157.811 95.6809 156.869C95.741 155.205 95.4744 153.546 94.896 151.985C94.0966 149.791 91.9892 148.41 89.7509 146.956C88.937 146.433 88.094 145.881 87.2946 145.285C83.936 142.757 80.7997 139.946 77.92 136.884C73.9992 132.71 70.535 128.13 67.5861 123.222L67.0192 122.248L68.836 120.998L66.9611 122.117L66.8884 121.986C65.8565 120.199 64.8536 118.338 63.9816 116.434L63.8944 116.26L63.4874 115.388C61.0014 110.071 58.9879 104.546 57.4702 98.8769C57.3539 98.4845 57.2522 98.063 57.1505 97.656C54.2212 86.0003 52.7757 74.0213 52.8483 62.0034V59.0238C52.8522 55.629 54.2025 52.3743 56.603 49.9738C59.0035 47.5733 62.2582 46.223 65.653 46.2191H152.859C156.254 46.223 159.508 47.5733 161.909 49.9738C164.309 52.3743 165.66 55.629 165.664 59.0238V62.0034C165.779 74.0206 164.378 86.0043 161.492 97.6705C161.39 98.0775 161.274 98.4845 161.172 98.8914C159.646 104.541 157.627 110.046 155.141 115.344L154.661 116.362C153.745 118.266 152.743 120.126 151.754 121.914L151.028 123.135C148.078 128.043 144.614 132.623 140.694 136.797C137.814 139.859 134.677 142.67 131.319 145.198C130.52 145.794 129.677 146.346 128.863 146.869C126.624 148.323 124.502 149.703 123.703 151.898C122.72 154.332 122.663 157.041 123.543 159.514C124.764 162.13 128.456 162.9 131.726 163.584L132.961 163.845C135.984 164.499 140.534 165.473 142.351 168.685C142.782 169.487 143.034 170.373 143.086 171.282C143.139 172.191 142.992 173.1 142.656 173.947C141.028 178.67 135.912 178.67 133.456 178.67ZM99.6342 174.31H133.456C136.755 174.31 138.063 173.874 138.499 172.624C138.626 172.359 138.693 172.068 138.693 171.774C138.693 171.479 138.626 171.189 138.499 170.923C137.656 169.47 133.964 168.627 131.988 168.205L130.781 167.944C126.93 167.144 121.668 166.04 119.532 161.447C118.134 157.933 118.134 154.017 119.532 150.503C120.825 146.927 123.79 145.009 126.406 143.236C127.162 142.741 127.86 142.262 128.616 141.782C131.776 139.403 134.728 136.757 137.438 133.875C141.143 129.927 144.417 125.596 147.205 120.954L147.83 119.893C148.876 118.091 149.821 116.318 150.737 114.516L151.202 113.557C153.601 108.461 155.546 103.165 157.016 97.7287C157.117 97.3363 157.234 96.9584 157.321 96.5659C160.112 85.2555 161.465 73.638 161.347 61.9888V59.0238C161.347 56.7842 160.457 54.6364 158.874 53.0527C157.29 51.4691 155.142 50.5794 152.902 50.5794H65.6966C64.584 50.5737 63.4813 50.7878 62.4517 51.2096C61.4221 51.6314 60.4861 52.2525 59.6973 53.0373C58.9085 53.822 58.2826 54.7548 57.8555 55.7822C57.4284 56.8096 57.2086 57.9112 57.2086 59.0238V62.0034C57.105 73.6496 58.4723 85.2623 61.2782 96.5659L61.5834 97.7287C63.0538 103.16 64.9992 108.452 67.3971 113.542L67.8622 114.53C68.7343 116.318 69.679 118.091 70.6528 119.792L71.3359 120.954C74.1226 125.597 77.3968 129.928 81.103 133.875C83.8129 136.758 86.7645 139.403 89.9253 141.782C90.6229 142.305 91.3787 142.8 92.1345 143.236C94.7507 144.936 97.7157 146.869 99.0092 150.43C99.7803 152.526 100.131 154.753 100.041 156.985C99.9831 158.492 99.6327 159.973 99.0092 161.345C96.8727 165.938 91.6113 167.043 87.7597 167.842L86.5533 168.104C82.1931 169.034 79.635 169.979 79.8966 171.839V171.984C79.9294 172.163 79.978 172.338 80.042 172.508C80.478 173.787 81.8006 174.223 85.0854 174.223H99.6197L99.6342 174.31Z" fill="#3E6177"/>
<path d="M122.613 42.3384C120.937 42.3384 119.299 41.8414 117.906 40.9103C116.512 39.9792 115.426 38.6559 114.785 37.1075C114.143 35.5592 113.976 33.8555 114.302 32.2118C114.629 30.5681 115.436 29.0582 116.621 27.8732C117.807 26.6882 119.316 25.8811 120.96 25.5542C122.604 25.2272 124.307 25.395 125.856 26.0364C127.404 26.6777 128.728 27.7638 129.659 29.1572C130.59 30.5507 131.087 32.189 131.087 33.8649C131.083 36.111 130.189 38.264 128.601 39.8523C127.012 41.4405 124.859 42.3345 122.613 42.3384ZM122.613 29.7517C121.8 29.7517 121.004 29.9929 120.328 30.4449C119.652 30.8968 119.124 31.5392 118.813 32.2908C118.502 33.0424 118.42 33.8694 118.579 34.6673C118.738 35.4652 119.129 36.1981 119.705 36.7733C120.28 37.3486 121.013 37.7403 121.811 37.899C122.609 38.0577 123.436 37.9763 124.187 37.665C124.939 37.3536 125.581 36.8264 126.033 36.15C126.485 35.4736 126.726 34.6784 126.726 33.8649C126.726 32.774 126.293 31.7278 125.522 30.9564C124.75 30.185 123.704 29.7517 122.613 29.7517Z" fill="#3E6177"/>
<path d="M64.6214 148.104C62.9455 148.104 61.3073 147.608 59.9138 146.676C58.5204 145.745 57.4343 144.422 56.793 142.874C56.1516 141.325 55.9838 139.622 56.3108 137.978C56.6377 136.334 57.4447 134.824 58.6298 133.639C59.8148 132.454 61.3247 131.647 62.9684 131.32C64.6121 130.993 66.3158 131.161 67.8641 131.802C69.4124 132.444 70.7358 133.53 71.6669 134.923C72.598 136.317 73.0949 137.955 73.0949 139.631C73.0911 141.877 72.1971 144.03 70.6089 145.618C69.0206 147.207 66.8676 148.101 64.6214 148.104ZM64.6214 135.518C63.8079 135.518 63.0127 135.759 62.3363 136.211C61.6599 136.663 61.1327 137.305 60.8213 138.057C60.51 138.809 60.4286 139.636 60.5873 140.433C60.746 141.231 61.1377 141.964 61.713 142.539C62.2882 143.115 63.0211 143.506 63.819 143.665C64.6169 143.824 65.4439 143.742 66.1955 143.431C66.9471 143.12 67.5895 142.593 68.0415 141.916C68.4934 141.24 68.7347 140.444 68.7347 139.631C68.7347 138.54 68.3013 137.494 67.5299 136.722C66.7586 135.951 65.7123 135.518 64.6214 135.518Z" fill="#6A5AE0"/>
<path d="M163.774 130.809C165.685 130.809 167.234 129.26 167.234 127.35C167.234 125.439 165.685 123.89 163.774 123.89C161.864 123.89 160.315 125.439 160.315 127.35C160.315 129.26 161.864 130.809 163.774 130.809Z" fill="#6A5AE0"/>
<path d="M94.5327 37.6439C96.4431 37.6439 97.9918 36.0952 97.9918 34.1847C97.9918 32.2743 96.4431 30.7256 94.5327 30.7256C92.6222 30.7256 91.0735 32.2743 91.0735 34.1847C91.0735 36.0952 92.6222 37.6439 94.5327 37.6439Z" fill="#D5DFEB"/>
<path d="M84.4609 157.261C86.3713 157.261 87.92 155.712 87.92 153.802C87.92 151.892 86.3713 150.343 84.4609 150.343C82.5504 150.343 81.0017 151.892 81.0017 153.802C81.0017 155.712 82.5504 157.261 84.4609 157.261Z" fill="#D5DFEB"/>
<path d="M115.622 62.0034H133.252V64.9103H115.622V62.0034Z" fill="white"/>
<path d="M135.767 62.0034H143.324V64.9103H135.767V62.0034Z" fill="white"/>
<path d="M145.839 62.0034H148.354V64.9103H145.839V62.0034Z" fill="white"/>
<path d="M154.995 116.623H152.757V112.263H154.981C158.482 112.255 161.838 110.861 164.314 108.385C166.79 105.909 168.185 102.553 168.193 99.0512C168.187 94.6416 169.842 90.3917 172.829 87.1476L173.963 85.9122C175.703 84.0239 176.855 81.6695 177.278 79.1368C177.701 76.6041 177.377 74.003 176.346 71.6515C175.314 69.3 173.62 67.3001 171.47 65.8963C169.32 64.4926 166.807 63.7458 164.239 63.7474H162.786V59.3871H164.239C167.654 59.3852 170.995 60.3783 173.854 62.2449C176.714 64.1115 178.967 66.7708 180.339 69.8976C181.712 73.0244 182.143 76.4833 181.581 79.8514C181.019 83.2195 179.488 86.3508 177.175 88.8626L176.041 90.0981C173.793 92.5373 172.548 95.7342 172.553 99.0512C172.545 103.707 170.693 108.17 167.403 111.463C164.112 114.756 159.651 116.612 154.995 116.623Z" fill="#3E6177"/>
<path d="M65.2606 116.623H63.0223C58.3643 116.615 53.8993 114.762 50.6056 111.468C47.3119 108.174 45.4581 103.709 45.4504 99.0512C45.4554 95.7342 44.2098 92.5373 41.9621 90.0981L40.8285 88.8626C38.5153 86.3508 36.9841 83.2195 36.4221 79.8514C35.86 76.4833 36.2915 73.0244 37.6637 69.8976C39.0359 66.7708 41.2894 64.1115 44.1488 62.2449C47.0081 60.3783 50.3493 59.3852 53.764 59.3871H55.2174V63.7474H53.764C51.1962 63.7458 48.6836 64.4926 46.5335 65.8963C44.3833 67.3001 42.6889 69.3 41.6573 71.6515C40.6257 74.003 40.3018 76.6041 40.725 79.1368C41.1483 81.6695 42.3004 84.0239 44.0405 85.9122L45.1742 87.1476C48.162 90.391 49.8176 94.6414 49.8107 99.0512C49.8183 102.553 51.2127 105.909 53.6888 108.385C56.1648 110.861 59.5207 112.255 63.0223 112.263H65.2461L65.2606 116.623Z" fill="#3E6177"/>
<path d="M58.3137 99.8217C78.3894 99.8217 94.6639 83.5471 94.6639 63.4714C94.6639 43.3957 78.3894 27.1211 58.3137 27.1211C38.238 27.1211 21.9634 43.3957 21.9634 63.4714C21.9634 83.5471 38.238 99.8217 58.3137 99.8217Z" fill="white"/>
<path d="M59.5777 92.9614C75.8647 92.9614 89.0678 79.7582 89.0678 63.4713C89.0678 47.1844 75.8647 33.9812 59.5777 33.9812C43.2908 33.9812 30.0876 47.1844 30.0876 63.4713C30.0876 79.7582 43.2908 92.9614 59.5777 92.9614Z" fill="#6A5AE0"/>
<path d="M58.3134 95.1415C52.0503 95.1386 45.9286 93.2788 40.7224 89.7971C35.5161 86.3153 31.4591 81.3681 29.0643 75.5809C26.6695 69.7937 26.0444 63.4263 27.268 57.2838C28.4917 51.1413 31.5091 45.4996 35.9389 41.0719C40.3686 36.6442 46.0117 33.6293 52.1548 32.4085C58.2978 31.1877 64.6649 31.8157 70.451 34.2132C76.2371 36.6107 81.1825 40.6699 84.6618 45.8777C88.1411 51.0856 89.9982 57.2081 89.9982 63.4713C89.9867 71.8697 86.6443 79.9207 80.7043 85.8579C74.7644 91.7951 66.7119 95.1338 58.3134 95.1415ZM58.3134 36.1468C52.9133 36.1497 47.6352 37.7534 43.1463 40.7554C38.6574 43.7574 35.1593 48.0227 33.0941 53.0124C31.0289 58.002 30.4893 63.492 31.5435 68.7882C32.5977 74.0845 35.1984 78.9493 39.0169 82.7678C42.8354 86.5863 47.7002 89.187 52.9965 90.2412C58.2928 91.2954 63.7827 90.7558 68.7723 88.6906C73.762 86.6254 78.0273 83.1273 81.0293 78.6384C84.0313 74.1495 85.635 68.8714 85.6379 63.4713C85.6302 56.2267 82.7489 49.2811 77.6263 44.1584C72.5036 39.0358 65.558 36.1545 58.3134 36.1468Z" fill="#3E6177"/>
<path d="M55.3194 76.7266C54.7469 76.7251 54.1887 76.5475 53.7206 76.2179L42.5728 68.413C42.338 68.2489 42.1379 68.0401 41.9838 67.7986C41.8297 67.5571 41.7247 67.2876 41.6748 67.0056C41.5739 66.4359 41.7035 65.8495 42.035 65.3754C42.3665 64.9012 42.8728 64.5782 43.4425 64.4774C44.0121 64.3765 44.5985 64.5061 45.0727 64.8376L54.9851 71.7414L71.1472 50.2015C71.498 49.7371 72.0189 49.4309 72.5954 49.3505C73.1719 49.2701 73.7567 49.422 74.2212 49.7728C74.6857 50.1236 74.9918 50.6445 75.0722 51.221C75.1526 51.7975 75.0008 52.3823 74.65 52.8468L57.5576 75.593C57.2989 75.9435 56.9618 76.2287 56.5731 76.4255C56.1844 76.6224 55.755 76.7255 55.3194 76.7266Z" fill="white"/>
</svg>
