<svg width="100" height="29" viewBox="0 0 100 29" fill="none" xmlns="http://www.w3.org/2000/svg">
<rect width="24" height="24" transform="translate(0 2)" fill="#6A5AE0"/>
<path d="M14 17C14.2833 17 14.5293 16.896 14.738 16.688C14.9467 16.48 15.0507 16.234 15.05 15.95C15.0493 15.666 14.9453 15.4203 14.738 15.213C14.5307 15.0057 14.2847 14.9013 14 14.9C13.7153 14.8987 13.4697 15.003 13.263 15.213C13.0563 15.423 12.952 15.6687 12.95 15.95C12.948 16.2313 13.0523 16.4773 13.263 16.688C13.4737 16.8987 13.7193 17.0027 14 17ZM14 13.8C14.1833 13.8 14.3543 13.7333 14.513 13.6C14.6717 13.4667 14.7673 13.2917 14.8 13.075C14.8333 12.875 14.904 12.6917 15.012 12.525C15.12 12.3583 15.316 12.1333 15.6 11.85C16.1 11.35 16.4333 10.9457 16.6 10.637C16.7667 10.3283 16.85 9.966 16.85 9.55C16.85 8.8 16.5873 8.18733 16.062 7.712C15.5367 7.23667 14.8493 6.99933 14 7C13.45 7 12.95 7.125 12.5 7.375C12.05 7.625 11.6917 7.98333 11.425 8.45C11.325 8.61667 11.3167 8.79167 11.4 8.975C11.4833 9.15833 11.625 9.29167 11.825 9.375C12.0083 9.45833 12.1877 9.46667 12.363 9.4C12.5383 9.33333 12.684 9.21667 12.8 9.05C12.95 8.83333 13.125 8.671 13.325 8.563C13.525 8.455 13.75 8.40067 14 8.4C14.4 8.4 14.725 8.51267 14.975 8.738C15.225 8.96333 15.35 9.26733 15.35 9.65C15.35 9.88333 15.2833 10.1043 15.15 10.313C15.0167 10.5217 14.7833 10.784 14.45 11.1C13.9667 11.5167 13.6583 11.8377 13.525 12.063C13.3917 12.2883 13.3083 12.6173 13.275 13.05C13.2583 13.25 13.321 13.425 13.463 13.575C13.605 13.725 13.784 13.8 14 13.8ZM8 20C7.45 20 6.97933 19.8043 6.588 19.413C6.19667 19.0217 6.00067 18.5507 6 18V6C6 5.45 6.196 4.97933 6.588 4.588C6.98 4.19667 7.45067 4.00067 8 4H20C20.55 4 21.021 4.196 21.413 4.588C21.805 4.98 22.0007 5.45067 22 6V18C22 18.55 21.8043 19.021 21.413 19.413C21.0217 19.805 20.5507 20.0007 20 20H8ZM4 24C3.45 24 2.97933 23.8043 2.588 23.413C2.19667 23.0217 2.00067 22.5507 2 22V9C2 8.71667 2.096 8.47933 2.288 8.288C2.48 8.09667 2.71733 8.00067 3 8C3.28267 7.99933 3.52033 8.09533 3.713 8.288C3.90567 8.48067 4.00133 8.718 4 9V22H17C17.2833 22 17.521 22.096 17.713 22.288C17.905 22.48 18.0007 22.7173 18 23C17.9993 23.2827 17.9033 23.5203 17.712 23.713C17.5207 23.9057 17.2833 24.0013 17 24H4Z" fill="white"/>
<path d="M42.384 17.12L41.976 17.504C42.008 17.68 42.04 17.848 42.072 18.008C42.104 18.152 42.136 18.296 42.168 18.44C42.344 19.096 42.544 19.712 42.768 20.288C42.992 20.88 43.168 21.176 43.296 21.176C43.488 21.176 43.712 20.856 43.968 20.216C44.032 20.056 44.096 19.952 44.16 19.904C44.24 19.856 44.328 19.832 44.424 19.832C44.488 19.832 44.552 19.848 44.616 19.88C44.68 19.912 44.712 19.952 44.712 20C44.712 20.08 44.632 20.368 44.472 20.864C44.312 21.36 44.128 21.816 43.92 22.232C43.712 22.648 43.512 22.856 43.32 22.856C43.032 22.856 42.808 22.744 42.648 22.52C42.488 22.296 42.36 22.064 42.264 21.824C42.184 21.6 42.128 21.448 42.096 21.368C41.888 20.936 41.608 20.144 41.256 18.992L41.04 18.296C40.032 19 39.184 19.48 38.496 19.736C37.808 19.976 37 20.096 36.072 20.096C35.112 20.096 34.264 19.848 33.528 19.352C32.808 18.856 32.24 18.144 31.824 17.216C31.424 16.272 31.224 15.152 31.224 13.856C31.224 12.16 31.632 10.496 32.448 8.864C33.264 7.216 34.272 5.712 35.472 4.352C35.52 4.288 35.632 4.152 35.808 3.944C35.984 3.736 36.176 3.568 36.384 3.44C36.608 3.312 36.84 3.248 37.08 3.248C37.336 3.248 37.584 3.272 37.824 3.32C37.92 3.192 38 3.112 38.064 3.08C38.144 3.032 38.264 3.008 38.424 3.008C39.672 3.008 40.848 3.232 41.952 3.68C43.072 4.112 43.984 4.808 44.688 5.768C45.392 6.712 45.744 7.904 45.744 9.344C45.744 11.04 45.456 12.48 44.88 13.664C44.304 14.848 43.472 16 42.384 17.12ZM38.352 4.208C38.352 4.4 38.272 4.568 38.112 4.712C37.968 4.856 37.776 4.928 37.536 4.928C37.328 4.928 37.016 4.896 36.6 4.832C35.32 6.064 34.304 7.456 33.552 9.008C32.8 10.544 32.424 12.224 32.424 14.048C32.424 15.664 32.752 16.888 33.408 17.72C34.08 18.552 34.984 18.968 36.12 18.968C37.08 18.968 37.864 18.848 38.472 18.608C39.08 18.368 39.856 17.904 40.8 17.216L40.488 15.608C40.072 13.56 39.864 12.464 39.864 12.32C39.864 12.112 39.928 11.944 40.056 11.816C40.184 11.672 40.392 11.6 40.68 11.6C40.808 11.6 40.936 11.896 41.064 12.488C41.208 13.08 41.376 13.96 41.568 15.128L41.784 16.4C42.696 15.408 43.408 14.4 43.92 13.376C44.448 12.352 44.712 11.08 44.712 9.56C44.712 8.328 44.416 7.312 43.824 6.512C43.248 5.712 42.48 5.128 41.52 4.76C40.56 4.392 39.504 4.208 38.352 4.208ZM57.3379 20.408C57.0179 20.408 56.7219 20.072 56.4499 19.4C56.1939 18.728 56.0339 18.032 55.9699 17.312C55.9059 16.624 55.8579 15.232 55.8259 13.136C55.8099 12.8 55.8019 12.464 55.8019 12.128C55.8019 11.776 55.7939 11.48 55.7779 11.24C55.3139 12.344 54.6819 13.6 53.8819 15.008C53.0819 16.416 52.2739 17.624 51.4579 18.632C50.6579 19.64 50.0019 20.144 49.4899 20.144C48.9619 20.144 48.6099 19.864 48.4339 19.304C48.2739 18.744 48.1939 17.856 48.1939 16.64C48.1939 15.504 48.3379 14.216 48.6259 12.776C48.9299 11.336 49.2739 10.24 49.6579 9.488C49.8179 9.152 49.9539 8.928 50.0659 8.816C50.1779 8.688 50.3059 8.624 50.4499 8.624C50.8499 8.624 51.0499 8.704 51.0499 8.864C51.0499 8.944 50.9699 9.128 50.8099 9.416C50.3779 10.216 50.0019 11.176 49.6819 12.296C49.3619 13.416 49.2019 14.92 49.2019 16.808C49.2019 18.072 49.3779 18.704 49.7299 18.704C50.1459 18.704 50.7059 18.248 51.4099 17.336C52.1299 16.408 52.8419 15.304 53.5459 14.024C54.2499 12.744 54.7859 11.632 55.1539 10.688C55.2819 10.368 55.4259 9.872 55.5859 9.2C55.6339 8.928 55.6819 8.736 55.7299 8.624C55.7779 8.496 55.8339 8.432 55.8979 8.432C56.0739 8.432 56.2659 8.504 56.4739 8.648C56.6819 8.792 56.7859 8.944 56.7859 9.104C56.7859 9.872 56.8099 11.192 56.8579 13.064C56.9219 14.92 56.9939 16.208 57.0739 16.928C57.1379 17.552 57.2499 18.04 57.4099 18.392C57.5859 18.744 57.7539 19.024 57.9139 19.232C58.0739 19.424 58.1539 19.544 58.1539 19.592C58.1539 19.848 58.0819 20.048 57.9379 20.192C57.7939 20.336 57.5939 20.408 57.3379 20.408ZM60.9144 5.336C60.6424 5.336 60.3624 5.224 60.0744 5C59.8024 4.776 59.6664 4.592 59.6664 4.448C59.6664 4.272 59.7464 4.104 59.9064 3.944C60.0824 3.784 60.2584 3.704 60.4344 3.704C60.6744 3.784 60.8744 3.912 61.0344 4.088C61.1624 4.216 61.3064 4.384 61.4664 4.592C61.6264 4.8 61.7064 4.928 61.7064 4.976C61.7064 5.216 61.4424 5.336 60.9144 5.336ZM61.6344 20.552C61.4104 20.536 61.2424 20.176 61.1304 19.472C61.0344 18.768 60.9304 17.432 60.8184 15.464C60.7544 14.168 60.6984 12.904 60.6504 11.672C60.6024 10.424 60.5704 9.464 60.5544 8.792C60.5544 8.616 60.5784 8.488 60.6264 8.408C60.6904 8.312 60.8024 8.264 60.9624 8.264C61.3304 8.264 61.5624 8.416 61.6584 8.72C61.7544 9.024 61.8024 9.608 61.8024 10.472L61.7784 13.304C61.7784 14.92 61.8264 16.216 61.9224 17.192C61.9224 17.24 61.9944 17.752 62.1384 18.728C62.2504 19.4 62.3064 19.848 62.3064 20.072C62.3064 20.232 62.2344 20.352 62.0904 20.432C61.9624 20.528 61.8104 20.568 61.6344 20.552ZM70.221 20.312C69.485 20.312 68.765 20.232 68.061 20.072C67.373 19.912 66.813 19.704 66.381 19.448C65.949 19.176 65.733 18.896 65.733 18.608C65.733 18.224 65.885 17.776 66.189 17.264C66.493 16.736 66.981 15.984 67.653 15.008C67.237 15.008 66.749 14.944 66.189 14.816C65.901 14.736 65.757 14.56 65.757 14.288C65.757 14.176 65.901 14.12 66.189 14.12L68.373 14.096C68.741 13.408 69.069 12.68 69.357 11.912C69.661 11.128 69.813 10.6 69.813 10.328C69.813 10.2 69.757 10.136 69.645 10.136C69.469 10.136 69.197 10.224 68.829 10.4C68.461 10.576 68.213 10.696 68.085 10.76C67.109 11.224 66.125 11.456 65.133 11.456C64.925 11.456 64.821 11.384 64.821 11.24C64.821 11.128 65.053 11 65.517 10.856C66.157 10.648 66.997 10.256 68.037 9.68C69.221 9.024 70.037 8.696 70.485 8.696C70.741 8.696 70.941 8.752 71.085 8.864C71.229 8.976 71.301 9.12 71.301 9.296C71.301 9.696 70.653 11.272 69.357 14.024C69.725 14.008 70.325 13.896 71.157 13.688C71.429 13.608 71.605 13.568 71.685 13.568C71.733 13.568 71.773 13.592 71.805 13.64C71.837 13.688 71.853 13.736 71.853 13.784C71.853 14.04 71.725 14.224 71.469 14.336C70.813 14.64 69.893 14.864 68.709 15.008L68.205 15.824C67.757 16.528 67.413 17.104 67.173 17.552C66.933 18 66.813 18.328 66.813 18.536C66.813 18.744 67.205 18.912 67.989 19.04C68.773 19.152 69.549 19.208 70.317 19.208C71.421 19.208 72.421 19.04 73.317 18.704C74.213 18.368 74.949 17.888 75.525 17.264C75.605 17.12 75.685 16.824 75.765 16.376C75.781 16.232 75.805 16.104 75.837 15.992C75.869 15.864 75.917 15.8 75.981 15.8C76.077 15.8 76.141 15.92 76.173 16.16C76.221 16.384 76.245 16.672 76.245 17.024C76.245 17.424 75.957 17.888 75.381 18.416C74.805 18.928 74.045 19.376 73.101 19.76C72.173 20.128 71.213 20.312 70.221 20.312ZM82.9241 20.312C82.1881 20.312 81.4681 20.232 80.7641 20.072C80.0761 19.912 79.5161 19.704 79.0841 19.448C78.6521 19.176 78.4361 18.896 78.4361 18.608C78.4361 18.224 78.5881 17.776 78.8921 17.264C79.1961 16.736 79.6841 15.984 80.3561 15.008C79.9401 15.008 79.4521 14.944 78.8921 14.816C78.6041 14.736 78.4601 14.56 78.4601 14.288C78.4601 14.176 78.6041 14.12 78.8921 14.12L81.0761 14.096C81.4441 13.408 81.7721 12.68 82.0601 11.912C82.3641 11.128 82.5161 10.6 82.5161 10.328C82.5161 10.2 82.4601 10.136 82.3481 10.136C82.1721 10.136 81.9001 10.224 81.5321 10.4C81.1641 10.576 80.9161 10.696 80.7881 10.76C79.8121 11.224 78.8281 11.456 77.8361 11.456C77.6281 11.456 77.5241 11.384 77.5241 11.24C77.5241 11.128 77.7561 11 78.2201 10.856C78.8601 10.648 79.7001 10.256 80.7401 9.68C81.9241 9.024 82.7401 8.696 83.1881 8.696C83.4441 8.696 83.6441 8.752 83.7881 8.864C83.9321 8.976 84.0041 9.12 84.0041 9.296C84.0041 9.696 83.3561 11.272 82.0601 14.024C82.4281 14.008 83.0281 13.896 83.8601 13.688C84.1321 13.608 84.3081 13.568 84.3881 13.568C84.4361 13.568 84.4761 13.592 84.5081 13.64C84.5401 13.688 84.5561 13.736 84.5561 13.784C84.5561 14.04 84.4281 14.224 84.1721 14.336C83.5161 14.64 82.5961 14.864 81.4121 15.008L80.9081 15.824C80.4601 16.528 80.1161 17.104 79.8761 17.552C79.6361 18 79.5161 18.328 79.5161 18.536C79.5161 18.744 79.9081 18.912 80.6921 19.04C81.4761 19.152 82.2521 19.208 83.0201 19.208C84.1241 19.208 85.1241 19.04 86.0201 18.704C86.9161 18.368 87.6521 17.888 88.2281 17.264C88.3081 17.12 88.3881 16.824 88.4681 16.376C88.4841 16.232 88.5081 16.104 88.5401 15.992C88.5721 15.864 88.6201 15.8 88.6841 15.8C88.7801 15.8 88.8441 15.92 88.8761 16.16C88.9241 16.384 88.9481 16.672 88.9481 17.024C88.9481 17.424 88.6601 17.888 88.0841 18.416C87.5081 18.928 86.7481 19.376 85.8041 19.76C84.8761 20.128 83.9161 20.312 82.9241 20.312ZM98.4353 11.792C98.2433 13.2 98.1393 13.992 98.1233 14.168C97.9153 16.136 97.7633 17.64 97.6673 18.68C97.5873 19.704 97.5473 20.632 97.5473 21.464C97.5473 22.152 97.5953 22.696 97.6913 23.096C97.8033 23.496 97.9153 23.808 98.0273 24.032C98.1553 24.272 98.2193 24.416 98.2193 24.464C98.2193 24.608 98.0913 24.736 97.8353 24.848C97.5793 24.96 97.3153 25.016 97.0433 25.016C96.8353 25.016 96.6673 24.736 96.5393 24.176C96.4273 23.616 96.3713 22.744 96.3713 21.56C96.3713 20.664 96.4593 19.456 96.6353 17.936L96.9953 14.624C96.5633 15.456 96.0273 16.256 95.3873 17.024C94.7633 17.776 94.1153 18.152 93.4433 18.152C92.8193 18.152 92.2593 17.608 91.7633 16.52C91.2673 15.432 90.8753 14.2 90.5873 12.824C90.3153 11.448 90.1793 10.44 90.1793 9.8C90.1793 9.4 90.2993 9.2 90.5393 9.2C90.8913 9.2 91.1153 9.528 91.2113 10.184C91.8193 14.632 92.6673 16.856 93.7553 16.856C94.1873 16.856 94.5633 16.688 94.8833 16.352C95.2193 16 95.6113 15.464 96.0593 14.744C96.2673 14.408 96.4913 13.96 96.7313 13.4C96.9713 12.84 97.1553 12.376 97.2833 12.008L97.4513 9.584C97.4833 9.216 97.5313 8.96 97.5953 8.816C97.6593 8.656 97.7873 8.576 97.9793 8.576C98.1393 8.576 98.2993 8.672 98.4593 8.864C98.6193 9.04 98.6993 9.216 98.6993 9.392C98.6993 9.76 98.6113 10.56 98.4353 11.792Z" fill="#6A5AE0"/>
</svg>
