<svg width="133" height="183" viewBox="0 0 133 183" fill="none" xmlns="http://www.w3.org/2000/svg">
<path d="M117.144 2.99731H15.6901C8.45396 2.99731 2.58789 8.86339 2.58789 16.0996V167.72C2.58789 174.956 8.45396 180.822 15.6901 180.822H117.144C124.38 180.822 130.246 174.956 130.246 167.72V16.0996C130.246 8.86339 124.38 2.99731 117.144 2.99731Z" fill="#6AE184"/>
<path d="M130.246 10.7431L128.952 171.217C128.947 172.946 128.257 174.603 127.035 175.825C125.812 177.048 124.156 177.737 122.427 177.743L12.0199 180.261C8.43171 180.261 6.41333 179.537 6.41333 175.949L2.58789 174.012C2.58789 173.943 13.9434 178.239 14.0125 178.239L115.152 173.887C116.88 173.881 118.537 173.192 119.759 171.97C120.982 170.747 121.671 169.091 121.677 167.362V5.8524C121.677 5.42004 121.849 5.00538 122.154 4.69965C122.46 4.39392 122.875 4.22217 123.307 4.22217H123.717C125.446 4.22671 127.102 4.91492 128.326 6.1366C129.549 7.35828 130.239 9.01425 130.246 10.7431Z" fill="#389D9C"/>
<path d="M30.1807 4.21777H35.356V180.412H30.1807V4.21777Z" fill="#426572"/>
<path d="M35.2915 4.21777H38.3105V180.412H35.2915V4.21777Z" fill="#A8FF8C"/>
<path d="M56.4243 5.03304V52.327C56.4245 52.7122 56.5388 53.0886 56.7527 53.4089C56.9667 53.7292 57.2707 53.9789 57.6264 54.1265C57.9822 54.2742 58.3736 54.3131 58.7515 54.2385C59.1293 54.1638 59.4766 53.9789 59.7495 53.7071L71.0878 42.3688C71.4533 42.0035 71.9489 41.7983 72.4657 41.7983C72.9825 41.7983 73.4781 42.0035 73.8436 42.3688L85.32 53.8451C85.5928 54.1169 85.9401 54.3018 86.3179 54.3765C86.6958 54.4511 87.0873 54.4122 87.443 54.2645C87.7987 54.1169 88.1028 53.8672 88.3167 53.5469C88.5307 53.2266 88.6449 52.8502 88.6451 52.465V5.02441" fill="#32CAF8"/>
<path d="M87.4199 4.62769V52.0683C87.4206 52.4543 87.3066 52.8319 87.0924 53.1531C86.8783 53.4743 86.5736 53.7246 86.217 53.8725C85.8604 54.0203 85.4679 54.0589 85.0893 53.9834C84.7107 53.9079 84.3631 53.7217 84.0904 53.4484L82.5249 51.8829V4.62769H87.4199Z" fill="#00A3EB"/>
<path d="M86.6868 57.002C86.0913 57.0017 85.5017 56.8838 84.9518 56.6551C84.4019 56.4265 83.9026 56.0915 83.4824 55.6693L72.4547 44.6502L61.5692 55.5356C60.9356 56.1763 60.1256 56.6139 59.2424 56.7924C58.3592 56.971 57.4428 56.8826 56.6101 56.5384C55.7774 56.1942 55.066 55.6098 54.5666 54.8598C54.0672 54.1097 53.8025 53.228 53.8062 52.3269V5.03296H58.9815V50.783L69.2589 40.5401C69.6802 40.1186 70.1804 39.7843 70.731 39.5562C71.2816 39.3281 71.8717 39.2107 72.4676 39.2107C73.0635 39.2107 73.6536 39.3281 74.2042 39.5562C74.7548 39.7843 75.255 40.1186 75.6763 40.5401L86.0615 50.9253V5.03296H91.2368V52.4736C91.2323 53.6769 90.7507 54.8293 89.8978 55.6782C89.0449 56.5271 87.8902 57.0031 86.6868 57.002Z" fill="#426572"/>
<path d="M12.4456 28.1094C13.3577 28.093 14.0308 24.3942 13.9491 19.8479C13.8674 15.3016 13.0617 11.6294 12.1496 11.6458C11.2375 11.6622 10.5643 15.361 10.646 19.9073C10.7278 24.4536 11.5335 28.1258 12.4456 28.1094Z" fill="white"/>
<path d="M12.5921 40.119C13.5042 40.1026 14.2105 38.2456 14.1696 35.9713C14.1287 33.6969 13.3561 31.8665 12.444 31.8829C11.5319 31.8993 10.8256 33.7563 10.8665 36.0306C10.9074 38.305 11.68 40.1354 12.5921 40.119Z" fill="white"/>
<path d="M115.889 183H16.9449C12.45 182.995 8.1407 181.207 4.96353 178.027C1.78636 174.848 0.00114055 170.537 0 166.042L0 16.9449C0.00456689 12.4523 1.7913 8.1449 4.9681 4.9681C8.1449 1.7913 12.4523 0.00456689 16.9449 0L115.889 0C120.381 0.00456689 124.689 1.7913 127.866 4.9681C131.042 8.1449 132.829 12.4523 132.834 16.9449V166.042C132.833 170.537 131.047 174.848 127.87 178.027C124.693 181.207 120.384 182.995 115.889 183ZM16.9449 5.17534C13.8245 5.17876 10.8328 6.41987 8.62635 8.62635C6.41987 10.8328 5.17876 13.8245 5.17534 16.9449V166.042C5.17876 169.163 6.41987 172.154 8.62635 174.361C10.8328 176.567 13.8245 177.808 16.9449 177.812H115.889C119.009 177.808 122.001 176.567 124.207 174.361C126.414 172.154 127.655 169.163 127.658 166.042V16.9449C127.655 13.8245 126.414 10.8328 124.207 8.62635C122.001 6.41987 119.009 5.17876 115.889 5.17534H16.9449Z" fill="#426572"/>
</svg>
