<svg width="114" height="111" viewBox="0 0 114 111" fill="none" xmlns="http://www.w3.org/2000/svg">
<path d="M39.7833 0H24.2532C23.838 0 23.5015 0.336576 23.5015 0.751763V16.2818C23.5015 16.697 23.838 17.0336 24.2532 17.0336H39.7833C40.1985 17.0336 40.535 16.697 40.535 16.2818V0.751763C40.535 0.336576 40.1985 0 39.7833 0Z" fill="#F0F0F0"/>
<path d="M36.9948 4.20428H36.9757C36.3989 4.20428 35.9314 4.23982 35.9314 4.28629C36.2368 4.36239 36.5523 4.39007 36.8663 4.36831C36.8144 4.42298 36.7379 4.50226 36.6422 4.60887L35.8221 5.53832L33.0884 8.67659L31.9375 7.89749C31.7325 7.76354 31.5302 7.62412 31.3416 7.50111L31.2787 7.46283L31.2322 7.51751C30.0157 8.93902 28.9387 10.2102 28.1705 11.1287L27.2711 12.2222C27.1552 12.3493 27.0509 12.4865 26.9595 12.6322C27.0872 12.5205 27.2068 12.3999 27.3176 12.2714L28.2552 11.2162C29.0343 10.3277 30.1087 9.08937 31.3088 7.69246L31.8555 8.05057L33.0665 8.85428L33.1267 8.89528L33.1731 8.84061L35.9068 5.61213L36.6968 4.65261C36.8007 4.52686 36.8718 4.43391 36.9155 4.37924H36.9292C36.906 4.69583 36.9328 5.01409 37.0085 5.32236C37.055 5.32236 37.0905 4.86584 37.0932 4.29723V4.21522L36.9948 4.20428Z" fill="#E0E0E0"/>
<path d="M80.1511 11.3695H88.4834C88.4835 13.0095 87.9997 14.613 87.0925 15.9792C86.1853 17.3454 84.8952 18.4136 83.3837 19.0498C81.8721 19.686 80.2065 19.8621 78.5954 19.5559C76.9843 19.2497 75.4993 18.4748 74.3266 17.3285C73.1539 16.1821 72.3455 14.7151 72.0028 13.1114C71.6601 11.5076 71.7983 9.83839 72.4 8.31282C73.0018 6.78725 74.0403 5.47317 75.3856 4.53521C76.7308 3.59726 78.3229 3.07713 79.9625 3.04001L80.1511 11.3695Z" fill="#F0F0F0"/>
<path d="M82.3958 9.33843L82.21 1.00617C84.4357 1.00524 86.579 1.8483 88.2077 3.36533C89.7666 4.9177 90.6682 7.01062 90.7254 9.20995L82.3958 9.33843Z" fill="#EBEBEB"/>
<path d="M83.5439 45.6689C83.4974 47.1998 83.5849 51.8689 83.5849 51.8689L84.9517 50.5021H92.647C92.7763 50.5013 92.9001 50.4495 92.9913 50.3578C93.0825 50.2661 93.1336 50.142 93.1336 50.0127V45.6935C93.1336 45.5645 93.0824 45.4407 92.9911 45.3494C92.8999 45.2582 92.7761 45.2069 92.647 45.2069H84.0332C83.9078 45.2061 83.787 45.2536 83.6958 45.3397C83.6046 45.4258 83.5502 45.5437 83.5439 45.6689Z" fill="#EBEBEB"/>
<path d="M87.4746 47.8531C87.4741 47.9244 87.4524 47.9939 87.4125 48.0529C87.3725 48.1118 87.316 48.1577 87.25 48.1846C87.184 48.2115 87.1115 48.2182 87.0417 48.204C86.9719 48.1898 86.9078 48.1552 86.8577 48.1046C86.8075 48.054 86.7734 47.9897 86.7597 47.9198C86.746 47.8499 86.7533 47.7775 86.7807 47.7117C86.808 47.6459 86.8543 47.5897 86.9136 47.5502C86.9729 47.5107 87.0425 47.4896 87.1138 47.4896C87.1614 47.4896 87.2085 47.499 87.2525 47.5173C87.2964 47.5356 87.3363 47.5624 87.3699 47.5962C87.4034 47.63 87.43 47.6701 87.4479 47.7142C87.4659 47.7583 87.475 47.8055 87.4746 47.8531Z" fill="#E0E0E0"/>
<path d="M88.694 47.8532C88.694 47.9252 88.6726 47.9956 88.6325 48.0554C88.5924 48.1153 88.5355 48.1619 88.4689 48.1893C88.4023 48.2167 88.329 48.2238 88.2584 48.2095C88.1878 48.1953 88.1231 48.1604 88.0723 48.1093C88.0216 48.0581 87.9872 47.9931 87.9735 47.9224C87.9597 47.8517 87.9673 47.7785 87.9953 47.7121C88.0232 47.6457 88.0702 47.5891 88.1304 47.5495C88.1905 47.5099 88.2611 47.489 88.3331 47.4896C88.3807 47.4896 88.4279 47.499 88.4718 47.5173C88.5158 47.5356 88.5557 47.5624 88.5892 47.5962C88.6228 47.63 88.6493 47.6701 88.6673 47.7142C88.6853 47.7583 88.6943 47.8055 88.694 47.8532Z" fill="#E0E0E0"/>
<path d="M89.9132 47.8531C89.9132 47.9251 89.8919 47.9953 89.8519 48.0551C89.812 48.1149 89.7552 48.1615 89.6888 48.189C89.6223 48.2166 89.5492 48.2238 89.4787 48.2097C89.4082 48.1957 89.3434 48.1611 89.2925 48.1102C89.2417 48.0594 89.2071 47.9946 89.193 47.9241C89.179 47.8535 89.1862 47.7804 89.2137 47.714C89.2412 47.6476 89.2878 47.5908 89.3476 47.5508C89.4074 47.5109 89.4777 47.4896 89.5496 47.4896C89.646 47.4896 89.7385 47.5279 89.8067 47.5961C89.8749 47.6642 89.9132 47.7567 89.9132 47.8531Z" fill="#E0E0E0"/>
<path d="M20.8823 69.9659C21.0874 67.306 23.0447 63.1891 25.4503 62.0382C26.6624 61.4684 28.0006 61.2195 29.3366 61.3152C30.6725 61.4109 31.9615 61.8482 33.08 62.585C34.5863 63.6019 35.729 65.1519 37.3774 65.9173C40.6386 67.4318 44.5095 65.2859 46.7867 62.503C49.0639 59.7201 50.4908 56.2702 53.0742 53.7552C54.3172 52.5453 55.7894 51.5961 57.4045 50.9632C59.0195 50.3304 60.7447 50.0267 62.4788 50.07C64.2128 50.1133 65.9208 50.5027 67.5022 51.2154C69.0836 51.928 70.5067 52.9495 71.6878 54.2199C73.4401 56.1061 74.5882 58.4598 75.9961 60.614C77.4039 62.7681 79.2109 64.843 81.6575 65.6494C85.0172 66.7566 88.8088 65.13 91.1871 62.5084C93.5655 59.8868 94.8011 56.4451 95.8344 53.0608C96.8677 49.6765 97.7726 46.1856 99.6616 43.195C101.551 40.2043 104.67 37.7276 108.207 37.6374V69.8675L20.8823 69.9659Z" fill="#F0F0F0"/>
<path d="M114 110.438C114 110.476 88.4783 110.509 57.0027 110.509C25.5271 110.509 0 110.476 0 110.438C0 110.4 25.5162 110.367 57.0027 110.367C88.4893 110.367 114 110.411 114 110.438Z" fill="#263238"/>
<path d="M92.3604 41.6883C92.4158 41.6812 92.4706 41.6702 92.5245 41.6555C92.6008 41.6289 92.6704 41.5857 92.7281 41.5289C92.7857 41.4722 92.8301 41.4034 92.858 41.3274C92.8912 41.2112 92.9014 41.0895 92.888 40.9693C92.888 40.8354 92.888 40.696 92.888 40.5292C92.888 40.2094 92.888 39.843 92.888 39.4357C92.888 37.7764 92.8744 35.3817 92.8634 32.4293C92.8634 30.9476 92.8634 29.3293 92.8634 27.5907C92.8634 26.7186 92.8634 25.8193 92.8634 24.8925C92.8634 24.4305 92.8634 23.9604 92.8634 23.4847C92.8634 23.2523 92.8634 22.9954 92.8634 22.7767C92.8456 22.6701 92.792 22.5728 92.7115 22.5008C92.631 22.4287 92.5284 22.3863 92.4206 22.3803H79.6707C79.5469 22.3802 79.4279 22.4285 79.3391 22.5147C79.2503 22.601 79.1986 22.7185 79.195 22.8423C79.195 23.1156 79.195 23.389 79.195 23.6788V28.5857C79.195 30.7153 79.195 32.7683 79.195 34.7256C79.195 36.6829 79.195 38.5527 79.195 40.2777V40.9256C79.1867 41.0284 79.1867 41.1317 79.195 41.2345C79.2109 41.3274 79.2547 41.4133 79.3208 41.4805C79.3858 41.5493 79.4693 41.5977 79.5613 41.6199C79.659 41.6345 79.7579 41.6391 79.8566 41.6336H82.7898L89.7962 41.6582L91.7098 41.6719H92.2046H92.3741C92.3741 41.6719 92.3167 41.6719 92.2046 41.6719H91.7098L89.7962 41.6855L82.7898 41.7074H80.4689H79.8566C79.7488 41.7138 79.6406 41.7083 79.534 41.691C79.4208 41.6655 79.3179 41.6064 79.2388 41.5215C79.1566 41.4375 79.1014 41.3309 79.0802 41.2154C79.0722 41.1062 79.0722 40.9965 79.0802 40.8873V40.2394C79.0802 38.5008 79.0802 36.6419 79.0802 34.6873C79.0802 32.7327 79.0802 30.677 79.0802 28.5475C79.0802 27.485 79.0802 26.4024 79.0802 25.2999V23.6405C79.0802 23.3671 79.0802 23.0938 79.0802 22.7985C79.0852 22.638 79.1525 22.4858 79.2678 22.374C79.3831 22.2622 79.5374 22.1998 79.698 22.1999H92.4288C92.5656 22.2085 92.6954 22.2632 92.7972 22.355C92.8989 22.4468 92.9666 22.5704 92.9892 22.7056C93.0083 22.979 92.9892 23.1922 92.9892 23.4355V24.8433C92.9892 25.7701 92.9892 26.6694 92.9892 27.5415C92.9892 29.2801 92.9892 30.8984 92.9892 32.3801C92.9892 35.3325 92.9728 37.7272 92.9673 39.3865C92.9673 39.7993 92.9673 40.1656 92.9673 40.48C92.9673 40.6385 92.9673 40.7862 92.9673 40.9201C92.9779 41.0435 92.9649 41.1679 92.929 41.2864C92.8993 41.366 92.8515 41.4376 92.7894 41.4955C92.7272 41.5534 92.6524 41.596 92.5709 41.6199C92.5083 41.6616 92.4355 41.6852 92.3604 41.6883Z" fill="#263238"/>
<path d="M86.9146 26.1338C85.0557 25.721 83.0136 26.7298 82.4915 28.6461C81.9885 30.4858 83.205 32.6345 85.0502 33.1348C85.9603 33.3529 86.9188 33.2299 87.7444 32.7891C88.57 32.3484 89.2055 31.6204 89.5307 30.7428C90.1923 28.7773 88.932 26.6587 87.0294 26.0327C86.8107 25.9589 86.7232 26.306 86.9364 26.3771C88.5575 26.9703 89.7221 28.7199 89.2355 30.4776C88.7762 32.1452 86.8216 33.2605 85.1541 32.8177C83.5494 32.3912 82.5133 30.669 82.7184 29.0643C82.9671 27.0988 85.0475 25.9233 86.8982 26.2432C86.9665 26.2432 86.9966 26.1529 86.9282 26.1393L86.9146 26.1338Z" fill="#263238"/>
<path d="M85.0669 33.0772C86.0094 33.3554 87.0234 33.2538 87.8919 32.794C88.7604 32.3342 89.4145 31.5528 89.7142 30.6169C90.2937 28.6213 89.0007 26.4617 87.0571 25.8685C86.6087 25.7318 86.4474 26.3934 86.8657 26.5574C88.5059 27.2025 89.5994 28.9876 88.9542 30.7399C88.3747 32.2981 86.6689 33.0499 85.0861 32.8722C84.9603 32.8558 84.9439 33.0526 85.0587 33.0854L85.0669 33.0772Z" fill="#6A5AE0"/>
<path d="M89.8044 36.3469C89.8044 36.3852 88.115 36.418 86.0265 36.418C83.938 36.418 82.2485 36.3852 82.2485 36.3469C82.2485 36.3086 83.9407 36.2758 86.0265 36.2758C88.1123 36.2758 89.8044 36.3086 89.8044 36.3469Z" fill="#6A5AE0"/>
<path d="M89.8044 37.4921C89.8044 37.5331 88.115 37.5631 86.0265 37.5631C83.938 37.5631 82.2485 37.5331 82.2485 37.4921C82.2485 37.4511 83.9407 37.421 86.0265 37.421C88.1123 37.421 89.8044 37.4538 89.8044 37.4921Z" fill="#6A5AE0"/>
<path d="M38.3018 10.4123V35.688C38.3025 35.9574 38.4098 36.2157 38.6004 36.4062C38.791 36.5968 39.0492 36.7042 39.3187 36.7049H72.9867C73.2562 36.7042 73.5144 36.5968 73.705 36.4062C73.8955 36.2157 74.0029 35.9574 74.0036 35.688V9.53756C74.0037 9.40168 73.9765 9.26717 73.9237 9.14198C73.8709 9.01678 73.7935 8.90344 73.6962 8.80864C73.5988 8.71385 73.4835 8.63952 73.3569 8.59005C73.2304 8.54058 73.0952 8.51698 72.9594 8.52063L39.2913 9.39541C39.0266 9.40322 38.7753 9.51371 38.5907 9.70351C38.406 9.8933 38.3024 10.1475 38.3018 10.4123Z" fill="#E0E0E0"/>
<path d="M70.9966 14.8356C70.9966 14.8629 70.5674 14.6196 69.7528 14.3627C68.5978 14.0025 67.3762 13.9091 66.1799 14.0893C65.3624 14.2187 64.5708 14.477 63.8344 14.8547C62.9935 15.3068 62.2152 15.8664 61.519 16.5196C60.759 17.192 60.0045 17.952 59.1352 18.6546C58.2486 19.4106 57.2115 19.9697 56.0926 20.2948C55.5127 20.4445 54.9093 20.4807 54.3157 20.4014C53.7465 20.3155 53.1935 20.1441 52.6755 19.8929C51.7271 19.398 50.8071 18.8504 49.9199 18.2527C49.125 17.7253 48.2485 17.3328 47.3257 17.0909C46.5211 16.8957 45.6903 16.832 44.8654 16.9023C43.6615 17.0025 42.4964 17.3765 41.4592 17.9957C40.7293 18.4441 40.3849 18.7776 40.3657 18.7557C40.4392 18.6664 40.5216 18.5849 40.6118 18.5124C40.8593 18.29 41.1244 18.088 41.4045 17.9083C42.2804 17.3428 43.2609 16.959 44.2879 16.7796C45.3148 16.6002 46.3674 16.6289 47.3831 16.864C48.3316 17.1008 49.2335 17.4954 50.0512 18.0313C50.933 18.6172 51.8455 19.1556 52.7848 19.6442C53.7872 20.1548 54.9393 20.2896 56.0325 20.0241C57.1148 19.7054 58.1179 19.1624 58.9766 18.4304C59.835 17.7442 60.5922 16.987 61.3631 16.3145C62.0793 15.6538 62.8789 15.0895 63.7414 14.636C64.5014 14.2677 65.3154 14.0231 66.1525 13.9116C67.3735 13.7409 68.6176 13.8617 69.7829 14.2643C70.0979 14.3715 70.4041 14.5031 70.6987 14.6579C70.8038 14.7067 70.9037 14.7663 70.9966 14.8356Z" fill="#455A64"/>
<path d="M49.548 20.7729H46.2539V29.6793H49.548V20.7729Z" fill="#455A64"/>
<path d="M63.5226 20.7729H60.2285V29.6793H63.5226V20.7729Z" fill="#455A64"/>
<path d="M68.1779 15.5434H64.8838V29.6793H68.1779V15.5434Z" fill="#455A64"/>
<path d="M45.2863 26.8745H41.9922V29.8706H45.2863V26.8745Z" fill="#455A64"/>
<path d="M54.2062 24.7943H50.9121V29.6794H54.2062V24.7943Z" fill="#455A64"/>
<path d="M58.8644 23.6735H55.5703V29.6794H58.8644V23.6735Z" fill="#455A64"/>
<path d="M49.6794 30.7291C49.6794 30.8029 48.8839 30.8603 47.8997 30.8603C46.9156 30.8603 46.1201 30.8029 46.1201 30.7291C46.1201 30.6553 46.9184 30.5979 47.8997 30.5979C48.8811 30.5979 49.6794 30.6553 49.6794 30.7291Z" fill="#263238"/>
<path d="M45.5812 30.7291C45.5812 30.8029 44.783 30.8603 43.8016 30.8603C42.8202 30.8603 42.022 30.8029 42.022 30.7291C42.022 30.6553 42.8202 30.5979 43.8016 30.5979C44.783 30.5979 45.5812 30.6553 45.5812 30.7291Z" fill="#263238"/>
<path d="M68.8287 30.7291C68.8287 30.8029 67.9266 30.8603 66.8167 30.8603C65.7068 30.8603 64.8047 30.8029 64.8047 30.7291C64.8047 30.6553 65.7041 30.5979 66.8167 30.5979C67.9293 30.5979 68.8287 30.6553 68.8287 30.7291Z" fill="#263238"/>
<path d="M61.9231 30.8603C63.0343 30.8603 63.9351 30.8016 63.9351 30.7291C63.9351 30.6566 63.0343 30.5979 61.9231 30.5979C60.8119 30.5979 59.9111 30.6566 59.9111 30.7291C59.9111 30.8016 60.8119 30.8603 61.9231 30.8603Z" fill="#263238"/>
<path d="M58.8622 30.7291C58.8622 30.8029 58.0667 30.8603 57.0826 30.8603C56.0984 30.8603 55.3057 30.8029 55.3057 30.7291C55.3057 30.6553 56.1012 30.5979 57.0826 30.5979C58.0639 30.5979 58.8622 30.6553 58.8622 30.7291Z" fill="#263238"/>
<path d="M54.0505 30.7291C54.0505 30.8029 53.2522 30.8603 52.2708 30.8603C51.2894 30.8603 50.4912 30.8029 50.4912 30.7291C50.4912 30.6553 51.2867 30.5979 52.2708 30.5979C53.255 30.5979 54.0505 30.6553 54.0505 30.7291Z" fill="#263238"/>
<path d="M64.7859 41.8307H64.8406C64.8969 41.8355 64.9516 41.8513 65.0019 41.8771C65.0859 41.9201 65.1546 41.9879 65.1987 42.0712C65.2516 42.1895 65.2714 42.3199 65.2561 42.4485C65.2561 43.028 65.2561 43.8782 65.2698 44.9689C65.2834 46.0597 65.2698 47.4047 65.2834 48.9601C65.2834 49.7401 65.2834 50.5712 65.2834 51.4532V52.4565C65.2991 52.5807 65.2762 52.7066 65.2178 52.8173C65.153 52.9316 65.0461 53.016 64.9199 53.0524C64.7982 53.0744 64.6743 53.0817 64.5508 53.0743H63.8346L63.8838 53.0251C63.8838 53.8124 63.8838 54.6653 63.8838 55.5456V55.6904L63.7881 55.5811L61.5547 53.0634L61.5984 53.0825H38.5754H36.9652C36.875 53.0825 36.7958 53.0825 36.6919 53.0825C36.5919 53.0701 36.4973 53.0304 36.4185 52.9677C36.3395 52.902 36.2799 52.816 36.2463 52.7189C36.2312 52.6692 36.223 52.6177 36.2217 52.5658V46.7431C36.2217 45.3899 36.2217 44.0586 36.2217 42.7574V42.2653C36.2249 42.1738 36.2517 42.0846 36.2996 42.0065C36.3476 41.9284 36.4149 41.8641 36.495 41.8197C36.5801 41.7784 36.674 41.7587 36.7684 41.7623H39.3763L52.5992 41.7787L61.511 41.8006L63.9357 41.8143H61.511L52.5992 41.8361L39.3763 41.8525H36.7711C36.7012 41.8476 36.6313 41.8617 36.5689 41.8935C36.5074 41.9251 36.4554 41.9723 36.4179 42.0304C36.3805 42.0884 36.359 42.1553 36.3556 42.2243V46.7431C36.3556 48.0972 36.3556 49.4741 36.3556 50.8737V52.4565C36.3487 52.5381 36.3552 52.6203 36.3748 52.6998C36.3969 52.7708 36.4398 52.8336 36.4978 52.8802C36.5564 52.9278 36.6277 52.9573 36.7028 52.965H38.5726H61.5957H61.623L61.6394 52.9841L63.8674 55.51L63.7717 55.5456C63.7717 54.6626 63.7717 53.8124 63.7717 53.0251V52.9732H64.5481C64.6621 52.9814 64.7768 52.9768 64.8898 52.9595C64.991 52.9295 65.0771 52.862 65.1304 52.7709C65.1851 52.6756 65.2099 52.566 65.2014 52.4565C65.2014 52.3417 65.2014 52.2269 65.2014 52.1148V51.4423C65.2014 50.5593 65.2014 49.7283 65.2014 48.9492C65.2014 47.3937 65.2014 46.0542 65.2014 44.958C65.2014 43.8618 65.2014 43.0171 65.2014 42.4376C65.2192 42.3135 65.2031 42.1869 65.155 42.0712C65.114 41.9908 65.0503 41.9243 64.9718 41.8799C64.913 41.8532 64.8502 41.8366 64.7859 41.8307Z" fill="#263238"/>
<path d="M37.7524 51.054C37.9821 50.2531 38.25 49.4357 38.783 48.796C39.3161 48.1563 40.1827 47.7271 40.9891 47.9349C42.2657 48.2629 42.8808 49.9633 44.1848 50.1218C44.9065 50.2203 45.609 49.7883 46.0738 49.2279C46.5385 48.6675 46.8255 47.9868 47.1809 47.3526C47.7276 46.3986 48.4466 45.5156 49.428 45.0372C50.4094 44.5588 51.6723 44.5561 52.5307 45.2313C54.0014 46.3904 53.7964 48.9491 55.3628 49.9715C55.7437 50.211 56.1872 50.3319 56.637 50.3188C57.0868 50.3056 57.5225 50.1591 57.8887 49.8977C58.5858 49.381 58.9412 48.4898 59.6738 48.0278C60.5213 47.4811 61.6968 47.7025 62.4649 48.3477C63.2331 48.9928 63.6322 49.9879 63.7771 50.9775" fill="#6A5AE0"/>
<path d="M63.2497 46.4558C63.2276 46.4511 63.2063 46.4428 63.1868 46.4312L63.0064 46.3465C62.7706 46.2462 62.5275 46.164 62.2793 46.1005C61.3568 45.9024 60.4001 45.9306 59.4909 46.1825C58.8637 46.3524 58.2534 46.5793 57.6675 46.8604C57.0306 47.1557 56.3718 47.5165 55.6692 47.8801C54.9368 48.2762 54.1745 48.6144 53.3893 48.8915C52.5403 49.1921 51.6392 49.3176 50.7404 49.2606C49.8463 49.176 48.9704 48.9548 48.1434 48.6045C47.337 48.2819 46.5961 47.902 45.8908 47.5466C44.4857 46.8249 43.1572 46.2481 41.9871 46.0731C41.0592 45.9039 40.1034 45.9735 39.2097 46.2754C38.8859 46.3972 38.5746 46.5501 38.2803 46.7319C38.2965 46.7151 38.3149 46.7004 38.3349 46.6882L38.499 46.5707C38.716 46.4315 38.9469 46.3152 39.1879 46.2235C40.0886 45.8965 41.0591 45.8098 42.0035 45.972C43.2036 46.1387 44.5377 46.7128 45.9483 47.429C46.6563 47.7817 47.3971 48.1589 48.1953 48.476C49.0096 48.8192 49.8716 49.0358 50.7513 49.1184C51.6316 49.1747 52.5141 49.052 53.3456 48.7576C54.124 48.4864 54.8799 48.1546 55.6063 47.7653C56.3116 47.4017 56.9732 47.0463 57.6183 46.7538C58.2122 46.4737 58.8309 46.2495 59.4663 46.0841C60.3907 45.836 61.3626 45.8238 62.2929 46.0485C62.6323 46.1301 62.9557 46.2678 63.2497 46.4558Z" fill="#263238"/>
<path d="M51.0518 44.7118C51.0545 44.7691 51.04 44.8259 51.0102 44.8748C50.9804 44.9238 50.9365 44.9627 50.8844 44.9865C50.8322 45.0104 50.7741 45.018 50.7176 45.0086C50.661 44.9991 50.6086 44.9729 50.5671 44.9333C50.5256 44.8938 50.4969 44.8427 50.4846 44.7867C50.4724 44.7307 50.4772 44.6723 50.4985 44.619C50.5198 44.5658 50.5565 44.5201 50.6039 44.4879C50.6514 44.4557 50.7074 44.4385 50.7647 44.4384C50.8384 44.439 50.909 44.4676 50.9623 44.5184C51.0156 44.5691 51.0476 44.6383 51.0518 44.7118Z" fill="#455A64"/>
<path d="M40.7508 45.9284C40.7508 45.9851 40.734 46.0406 40.7025 46.0878C40.6709 46.135 40.6261 46.1718 40.5736 46.1935C40.5212 46.2153 40.4635 46.221 40.4078 46.2099C40.3521 46.1988 40.301 46.1715 40.2608 46.1313C40.2207 46.0912 40.1933 46.04 40.1823 45.9844C40.1712 45.9287 40.1769 45.871 40.1986 45.8185C40.2203 45.7661 40.2571 45.7212 40.3043 45.6897C40.3515 45.6582 40.407 45.6413 40.4638 45.6413C40.502 45.6394 40.5402 45.6454 40.5759 45.6592C40.6116 45.6729 40.6441 45.694 40.6711 45.721C40.6982 45.7481 40.7193 45.7805 40.733 45.8162C40.7467 45.8519 40.7528 45.8901 40.7508 45.9284Z" fill="#455A64"/>
<path d="M61.2485 45.9311C61.2485 45.9884 61.2315 46.0445 61.1996 46.0921C61.1678 46.1398 61.1226 46.1769 61.0696 46.1988C61.0167 46.2208 60.9584 46.2265 60.9022 46.2153C60.846 46.2041 60.7943 46.1765 60.7538 46.136C60.7133 46.0955 60.6857 46.0439 60.6745 45.9877C60.6633 45.9314 60.6691 45.8732 60.691 45.8202C60.7129 45.7673 60.7501 45.722 60.7977 45.6902C60.8454 45.6584 60.9014 45.6414 60.9587 45.6414C61.0356 45.6414 61.1093 45.6719 61.1636 45.7262C61.218 45.7806 61.2485 45.8543 61.2485 45.9311Z" fill="#455A64"/>
<path d="M80.6625 86.4664H83.2239C84.4185 86.4664 86.98 83.3254 73.0819 83.6835C63.946 83.9186 63.3446 85.269 63.8066 86.0563C63.9182 86.2351 64.0772 86.3795 64.2658 86.4736C64.4544 86.5677 64.6654 86.6078 64.8754 86.5894C65.0996 86.573 65.3948 86.5702 65.7447 86.573L65.5261 87.5352L60.4414 110.012L61.3271 109.935L65.0832 97.5624L72.2482 97.289L72.6582 110.443H73.7818L74.0551 97.2207H74.0907L74.8479 97.1933L81.1982 96.9473L84.9625 110.446H86.0396L80.6625 86.4664ZM65.6272 95.7992L68.134 87.5352L68.4074 86.6003C69.4571 86.6003 70.6845 86.5757 71.9147 86.5757L72.188 95.5969L65.6272 95.7992ZM75.0748 95.5039H74.8014L74.1044 95.5258L74.2902 86.4582H78.2924L80.7527 95.318L75.0748 95.5039Z" fill="#455A64"/>
<path d="M57.7678 108.894V105.988L62.9755 105.955L63.0165 110.299L62.6939 110.323C61.2587 110.416 55.3868 110.597 54.4245 110.296C53.3529 109.965 57.7678 108.894 57.7678 108.894Z" fill="#6A5AE0"/>
<path d="M54.3018 110.031C54.3018 110.08 56.2481 110.121 58.651 110.121C61.054 110.121 63.0003 110.08 63.0003 110.031C63.0003 109.982 61.054 109.943 58.651 109.943C56.2481 109.943 54.3018 109.982 54.3018 110.031Z" fill="#263238"/>
<path d="M57.6779 109.487C57.7216 109.465 57.6779 109.312 57.5713 109.159C57.4647 109.006 57.3252 108.926 57.2979 108.962C57.2706 108.997 57.3334 109.123 57.4373 109.265C57.5412 109.408 57.6341 109.511 57.6779 109.487Z" fill="#263238"/>
<path d="M57.3441 109.678C57.3906 109.662 57.366 109.49 57.2649 109.309C57.1637 109.129 57.027 109.017 56.9915 109.036C56.956 109.055 57.0188 109.216 57.1145 109.383C57.2102 109.55 57.2977 109.697 57.3441 109.678Z" fill="#263238"/>
<path d="M61.4309 110.012C61.4528 110.012 61.5293 109.949 61.6414 109.821C61.7795 109.655 61.9323 109.502 62.0979 109.364C62.2612 109.235 62.4552 109.15 62.661 109.118C62.8196 109.096 62.9344 109.118 62.9344 109.096C62.9344 109.074 62.8469 109.006 62.661 108.992C62.4186 108.991 62.183 109.073 61.994 109.225C61.8123 109.37 61.6593 109.548 61.543 109.749C61.4528 109.897 61.4117 109.998 61.4309 110.012Z" fill="#263238"/>
<path d="M57.6613 108.94C57.6367 108.981 57.7242 109.082 57.8746 109.137C58.0249 109.192 58.1479 109.172 58.1643 109.137C58.1807 109.101 58.0659 109.03 57.9347 108.981C57.8035 108.932 57.6859 108.899 57.6613 108.94Z" fill="#263238"/>
<path d="M57.7432 108.661C57.7432 108.708 57.8771 108.751 58.0521 108.751C58.227 108.751 58.3692 108.716 58.3664 108.669C58.3637 108.623 58.2243 108.579 58.0548 108.576C57.8853 108.574 57.7486 108.612 57.7432 108.661Z" fill="#263238"/>
<path d="M68.7549 108.894V105.988L73.9626 105.955L74.0036 110.299L73.681 110.323C72.2458 110.416 66.3739 110.597 65.4116 110.296C64.3427 109.965 68.7549 108.894 68.7549 108.894Z" fill="#6A5AE0"/>
<path d="M65.2915 110.031C65.2915 110.08 67.2406 110.121 69.6408 110.121C72.041 110.121 73.9901 110.08 73.9901 110.031C73.9901 109.982 72.0437 109.943 69.6408 109.943C67.2379 109.943 65.2915 109.982 65.2915 110.031Z" fill="#263238"/>
<path d="M68.667 109.487C68.7107 109.465 68.667 109.312 68.5604 109.159C68.4537 109.006 68.3143 108.926 68.287 108.962C68.2597 108.997 68.3253 109.123 68.4264 109.265C68.5275 109.408 68.6232 109.511 68.667 109.487Z" fill="#263238"/>
<path d="M68.3339 109.678C68.3804 109.662 68.3558 109.49 68.2546 109.309C68.1535 109.129 68.0168 109.017 67.9812 109.036C67.9457 109.055 68.0086 109.216 68.1043 109.383C68.1999 109.55 68.2901 109.697 68.3339 109.678Z" fill="#263238"/>
<path d="M72.4206 110.012C72.4425 110.012 72.519 109.949 72.6311 109.821C72.7692 109.655 72.922 109.502 73.0876 109.364C73.251 109.235 73.445 109.15 73.6508 109.118C73.8093 109.096 73.9242 109.118 73.9242 109.096C73.9242 109.074 73.8339 109.006 73.6508 108.992C73.4083 108.991 73.1727 109.073 72.9838 109.225C72.802 109.37 72.649 109.548 72.5327 109.749C72.4425 109.897 72.4015 109.998 72.4206 110.012Z" fill="#263238"/>
<path d="M68.651 108.94C68.6264 108.981 68.7166 109.082 68.8642 109.137C69.0118 109.192 69.1376 109.172 69.154 109.137C69.1704 109.101 69.0556 109.03 68.9244 108.981C68.7932 108.932 68.6783 108.899 68.651 108.94Z" fill="#263238"/>
<path d="M68.7329 108.661C68.7329 108.708 68.8669 108.751 69.0418 108.751C69.2168 108.751 69.3589 108.716 69.3562 108.669C69.3535 108.623 69.214 108.579 69.0445 108.576C68.8751 108.574 68.7384 108.612 68.7329 108.661Z" fill="#263238"/>
<path d="M83.6752 56.7704C83.462 56.7212 83.1969 56.7485 83.0684 56.5709C82.9399 56.3932 83.0328 56.1854 83.1012 55.9968C83.3298 55.3919 83.3366 54.7255 83.1203 54.116C82.9653 53.7141 82.6917 53.369 82.3357 53.1264C82.3879 53.0763 82.433 53.0193 82.4697 52.9569C82.5706 52.7748 82.6215 52.5692 82.6173 52.361C82.6241 52.1758 82.5918 51.9912 82.5226 51.8193C82.4534 51.6474 82.3487 51.492 82.2155 51.3632C82.0983 51.257 81.9458 51.1981 81.7876 51.1981C81.6295 51.1981 81.477 51.257 81.3598 51.3632C81.3164 51.4041 81.2818 51.4534 81.2581 51.5082C81.2344 51.563 81.2222 51.622 81.2222 51.6817C81.2222 51.7413 81.2344 51.8004 81.2581 51.8551C81.2818 51.9099 81.3164 51.9592 81.3598 52.0001C81.4172 52.047 81.4866 52.0768 81.5601 52.0859C81.6336 52.0951 81.7082 52.0834 81.7753 52.0521C81.8656 52.0056 81.8792 51.9482 81.8792 51.9482C81.8453 51.9805 81.8066 52.0072 81.7644 52.0275C81.7023 52.0493 81.6355 52.0544 81.5708 52.0425C81.506 52.0305 81.4456 52.0017 81.3954 51.9591C81.3596 51.9221 81.3319 51.878 81.314 51.8297C81.2962 51.7814 81.2885 51.73 81.2916 51.6786C81.2947 51.6272 81.3085 51.577 81.332 51.5311C81.3555 51.4853 81.3882 51.4449 81.4282 51.4124C81.5328 51.3253 81.6662 51.2804 81.8022 51.2865C81.9382 51.2926 82.067 51.3492 82.1635 51.4452C82.2811 51.5663 82.3725 51.7104 82.4317 51.8685C82.491 52.0265 82.517 52.1951 82.508 52.3637C82.5117 52.5505 82.4644 52.7348 82.3713 52.8968C82.3344 52.9574 82.2894 53.0126 82.2373 53.0608C82.0913 52.9728 81.9328 52.9074 81.7671 52.8667C81.4145 52.782 81.0318 52.8038 80.7092 52.6371C80.4401 52.4833 80.2354 52.2378 80.1324 51.9455C80.1324 51.9154 80.1324 51.8826 80.1324 51.8498C80.171 51.3746 80.2358 50.9018 80.3265 50.4337C80.3871 49.9791 80.3752 49.5178 80.291 49.0669C80.228 48.6823 80.0777 48.3172 79.8517 47.9997C79.6256 47.6822 79.3298 47.4207 78.987 47.2353C78.7517 47.1194 78.4937 47.0569 78.2314 47.0521C77.9692 47.0474 77.7091 47.1006 77.4698 47.208C77.3417 47.2666 77.2236 47.345 77.1199 47.4404L77.0625 47.5005C76.9009 47.5807 76.7583 47.6944 76.6442 47.834L75.8022 55.4282L81.9776 59.2034C82.4584 59.1874 82.9336 59.0951 83.3855 58.93C83.6107 58.8441 83.8129 58.7071 83.9761 58.5296C84.1393 58.3522 84.2591 58.1393 84.3259 57.9076C84.3831 57.6708 84.3476 57.4211 84.2266 57.2097C84.1057 56.9982 83.9084 56.8411 83.6752 56.7704ZM79.6212 48.8181C79.5134 48.5184 79.3469 48.2431 79.1314 48.0084C78.916 47.7737 78.6559 47.5843 78.3664 47.4513C77.9634 47.2935 77.5144 47.3013 77.1171 47.4732C77.2277 47.3882 77.349 47.3184 77.478 47.2654C77.7104 47.1713 77.9604 47.1285 78.2109 47.1398C78.4614 47.1512 78.7066 47.2164 78.9296 47.331C79.253 47.5142 79.5307 47.7682 79.7419 48.0741C79.953 48.3799 80.0922 48.7296 80.1488 49.097C80.2253 49.5322 80.2345 49.9766 80.1761 50.4146C80.1406 50.7563 80.0449 51.1008 80.0012 51.4671C79.9674 51.2077 79.9473 50.9467 79.941 50.6852C79.9397 50.0494 79.8316 49.4182 79.6212 48.8181Z" fill="#263238"/>
<path d="M77.7923 48.8075C77.7552 48.662 77.6706 48.533 77.5517 48.4412C77.3182 48.3355 77.0529 48.3238 76.8109 48.4084L76.7972 46.6643L73.402 43.9033L71.5731 44.8519C71.1046 45.0955 70.7126 45.4639 70.4405 45.9165C70.1684 46.369 70.0268 46.888 70.0314 47.4161C70.045 48.8212 70.0806 50.7266 70.1735 51.8091C70.3321 53.668 72.2128 53.8211 72.2128 53.8211C72.2128 53.8211 72.2948 54.4908 72.3495 55.1551C72.3495 55.1551 71.9367 60.658 73.8722 60.6088C75.2992 60.5733 76.2587 57.5744 76.6633 55.9971L76.8792 55.1305V55.084V55.0485L76.8382 49.8299L76.8956 49.8901C76.9572 49.9423 77.0328 49.9753 77.113 49.985C77.1931 49.9948 77.2744 49.9807 77.3467 49.9447C77.4494 49.8991 77.5418 49.8332 77.6183 49.751C77.6949 49.6688 77.7541 49.572 77.7923 49.4663C77.8648 49.2527 77.8648 49.0211 77.7923 48.8075Z" fill="#FFBE9D"/>
<path d="M70.4635 48.7746C70.4639 48.806 70.4705 48.8369 70.483 48.8657C70.4955 48.8944 70.5136 48.9204 70.5362 48.9421C70.5589 48.9637 70.5857 48.9806 70.615 48.9918C70.6443 49.0029 70.6755 49.0081 70.7068 49.007C70.7699 49.007 70.8304 48.9819 70.875 48.9373C70.9196 48.8927 70.9447 48.8322 70.9447 48.7692C70.9447 48.7061 70.9196 48.6456 70.875 48.601C70.8304 48.5564 70.7699 48.5313 70.7068 48.5313C70.6746 48.5302 70.6424 48.5357 70.6124 48.5475C70.5823 48.5593 70.5551 48.5772 70.5322 48.6C70.5094 48.6229 70.4915 48.6502 70.4797 48.6802C70.4679 48.7102 70.4624 48.7424 70.4635 48.7746Z" fill="#263238"/>
<path d="M70.2251 48.5231C70.2551 48.5532 70.4274 48.3974 70.6843 48.3783C70.9413 48.3591 71.1354 48.4767 71.1627 48.4411C71.1901 48.4056 71.1409 48.3701 71.0561 48.3154C70.9415 48.2425 70.8059 48.2098 70.6707 48.2224C70.5359 48.2341 70.4085 48.2887 70.3071 48.3783C70.2333 48.4466 70.2087 48.5095 70.2251 48.5231Z" fill="#263238"/>
<path d="M73.2241 48.6926C73.2241 48.7557 73.2492 48.8162 73.2938 48.8608C73.3384 48.9054 73.3989 48.9304 73.462 48.9304C73.525 48.9304 73.5855 48.9054 73.6301 48.8608C73.6747 48.8162 73.6998 48.7557 73.6998 48.6926C73.6998 48.6295 73.6747 48.569 73.6301 48.5244C73.5855 48.4798 73.525 48.4548 73.462 48.4548C73.3989 48.4548 73.3384 48.4798 73.2938 48.5244C73.2492 48.569 73.2241 48.6295 73.2241 48.6926Z" fill="#263238"/>
<path d="M73.0713 48.4383C73.1013 48.4684 73.2736 48.3153 73.5305 48.2934C73.7875 48.2715 73.9816 48.3918 74.0089 48.359C74.0363 48.3262 73.987 48.2852 73.9023 48.2305C73.7868 48.1606 73.6521 48.129 73.5176 48.1403C73.383 48.1516 73.2555 48.2052 73.1533 48.2934C73.0795 48.3563 73.0549 48.4246 73.0713 48.4383Z" fill="#263238"/>
<path d="M72.1939 50.6418C72.0555 50.6706 71.9141 50.6816 71.7729 50.6746C71.7357 50.6797 71.698 50.6797 71.6608 50.6746C71.6364 50.6695 71.6134 50.6586 71.594 50.643C71.5745 50.6273 71.559 50.6072 71.5487 50.5844C71.5227 50.4941 71.5285 50.3976 71.5651 50.311L71.721 49.7643C71.8399 49.2976 71.9943 48.8406 72.183 48.3975C72.0999 48.8714 71.9811 49.3384 71.8276 49.7944L71.6636 50.3411C71.6329 50.4048 71.6224 50.4763 71.6335 50.5461C71.6472 50.5926 71.7073 50.6008 71.7729 50.6008C71.9145 50.5946 72.0562 50.6084 72.1939 50.6418Z" fill="#263238"/>
<path d="M73.0823 50.8493C73.0987 50.8302 72.3415 51.3059 71.8193 51.3195C71.916 51.4476 72.0532 51.5392 72.2086 51.5794C72.3639 51.6196 72.5283 51.6061 72.675 51.541C72.8175 51.4982 72.9387 51.4032 73.0142 51.275C73.0897 51.1468 73.1141 50.9947 73.0823 50.8493Z" fill="#FAFAFA"/>
<path d="M72.2017 53.8237C73.085 53.7655 73.9331 53.4552 74.6456 52.9298C74.6456 52.9298 74.1207 54.3103 72.2536 54.2775L72.2017 53.8237Z" fill="#EB996E"/>
<path d="M69.7609 47.6401C70.581 47.7521 71.1688 47.5307 71.9615 47.3312C72.7543 47.1316 73.5088 46.6095 73.7849 45.8386C73.88 46.3482 74.1147 46.8213 74.4628 47.2054C74.5367 47.2874 74.6788 47.364 74.7362 47.2737C74.7485 47.2472 74.7548 47.2183 74.7548 47.189C74.7548 47.1597 74.7485 47.1308 74.7362 47.1043L74.5722 46.4536C74.8529 46.9666 75.218 47.4286 75.652 47.8205C76.1058 48.1841 77.4863 48.7472 77.2758 48.2059C77.2239 48.0692 77.6859 43.8539 73.6783 43.791C69.6707 43.7282 69.7609 47.6401 69.7609 47.6401Z" fill="#263238"/>
<path d="M76.8628 48.8403C76.8491 48.8403 76.9311 48.7447 77.1034 48.7501C77.1912 48.7571 77.2751 48.7894 77.3448 48.8432C77.4145 48.8971 77.4671 48.97 77.4961 49.0532C77.5251 49.1364 77.5292 49.2262 77.508 49.3117C77.4868 49.3972 77.4412 49.4747 77.3767 49.5347C77.3005 49.6013 77.2044 49.6408 77.1034 49.6468C76.9311 49.6468 76.8519 49.5648 76.8628 49.5538C76.8737 49.5429 76.9612 49.573 77.0924 49.5538C77.1739 49.5393 77.2477 49.4966 77.3009 49.4331C77.3541 49.3696 77.3832 49.2895 77.3832 49.2067C77.3832 49.1239 77.3541 49.0437 77.3009 48.9802C77.2477 48.9167 77.1739 48.874 77.0924 48.8595C76.9557 48.8212 76.871 48.8622 76.8628 48.8403Z" fill="#EB996E"/>
<path d="M83.5166 61.9344L84.2055 61.7949C84.2055 61.7949 82.7047 55.0482 77.4889 55.0482H76.8738V55.081V55.1275L76.6578 55.9941C76.2532 57.5714 75.291 60.5703 73.8667 60.6058C72.0598 60.6523 72.3003 55.8711 72.3386 55.2259C72.2933 55.2312 72.2491 55.2432 72.2074 55.2614C72.2074 55.2614 66.535 55.5758 64.0063 60.5511L68.3802 63.7468L69.4491 63.1016C69.4491 63.1016 69.799 70.1381 69.1976 72.0545C68.5197 74.2195 67.4699 76.617 67.4699 76.617C72.2785 76.2425 77.7486 76.4584 83.5795 76.9969L79.6895 62.7135C80.9967 62.6441 82.2864 62.3816 83.5166 61.9344Z" fill="#6A5AE0"/>
<path d="M78.8365 65.305C78.8365 65.305 78.8009 65.3678 78.7135 65.458C78.5876 65.5822 78.4492 65.693 78.3007 65.7888C77.8034 66.1128 77.2181 66.2751 76.625 66.2536C76.0319 66.232 75.4599 66.0277 74.9874 65.6685C74.845 65.5632 74.7147 65.4421 74.5993 65.3077C74.5173 65.212 74.4817 65.1519 74.4899 65.1464C74.4981 65.1409 74.684 65.3432 75.0367 65.5865C75.5043 65.9085 76.0541 66.0906 76.6215 66.1114C77.1889 66.1322 77.7505 65.9909 78.2405 65.7041C78.626 65.4908 78.8173 65.305 78.8365 65.305Z" fill="#263238"/>
<path d="M81.3625 69.064C81.3122 68.9552 81.2728 68.8416 81.2449 68.725C81.1684 68.479 81.0755 68.1783 80.9716 67.7956C80.7365 67.011 80.4248 65.9257 80.0366 64.7366C79.6485 63.5474 79.2986 62.4704 79.0361 61.694C78.9158 61.3277 78.812 61.0188 78.7299 60.7727C78.6847 60.663 78.6526 60.5483 78.6343 60.431C78.6935 60.5346 78.7429 60.6435 78.7819 60.7563C78.8694 60.9668 78.9896 61.2757 79.1318 61.6612C79.4188 62.4294 79.7934 63.4982 80.1706 64.6928C80.5479 65.8875 80.8595 66.9755 81.0673 67.7682C81.1711 68.1646 81.2531 68.4872 81.3023 68.7113C81.3359 68.8262 81.3561 68.9445 81.3625 69.064Z" fill="#263238"/>
<path d="M79.6705 58.2741C79.4254 58.2688 79.1852 58.2041 78.9706 58.0855C78.7376 58.0104 78.5251 57.8822 78.3501 57.711C78.5866 57.7573 78.8145 57.8403 79.0253 57.957C79.2551 58.0295 79.4727 58.1364 79.6705 58.2741Z" fill="#263238"/>
<path d="M81.0151 60.6142C81.0311 60.3391 81.095 60.069 81.2038 59.8159C81.269 59.5475 81.3799 59.2922 81.5318 59.0614C81.5124 59.3362 81.4477 59.6059 81.3404 59.8597C81.2755 60.1278 81.1655 60.3829 81.0151 60.6142Z" fill="#263238"/>
<path d="M76.3325 62.298C76.3925 62.0474 76.4912 61.8076 76.625 61.5873C76.7168 61.3457 76.844 61.1191 77.0023 60.9148C76.8984 61.4247 76.6681 61.9004 76.3325 62.298Z" fill="#263238"/>
<path d="M75.4849 63.7796C75.2412 63.6524 75.0284 63.4732 74.8616 63.2547C74.6601 63.0667 74.5032 62.836 74.4023 62.5795C74.7961 62.9518 75.1616 63.353 75.4958 63.7796H75.4849Z" fill="#263238"/>
<path d="M78.8697 63.5556C78.7276 63.8518 78.5288 64.1174 78.2847 64.3374C78.0816 64.5564 77.8552 64.7526 77.6095 64.9224L77.4072 65.0454L77.5658 64.8841C77.6041 64.8459 77.6287 64.8295 77.6369 64.8349C77.6451 64.8404 77.6369 64.8705 77.615 64.9169L77.5712 64.8787C77.6669 64.7639 77.9102 64.526 78.1836 64.239C78.3909 63.9907 78.6206 63.7619 78.8697 63.5556Z" fill="#263238"/>
<path d="M79.6045 68.4351C79.3336 68.3894 79.0766 68.2829 78.8528 68.1235C78.604 68.0044 78.386 67.8294 78.2158 67.6123C78.466 67.714 78.7036 67.8443 78.9239 68.0005C79.168 68.1163 79.3967 68.2623 79.6045 68.4351Z" fill="#263238"/>
<path d="M76.1793 67.32C76.0866 67.5816 75.9487 67.825 75.7719 68.039C75.6335 68.2797 75.4561 68.4958 75.2471 68.6786C75.3384 68.4164 75.4764 68.1728 75.6544 67.9597C75.793 67.7191 75.9703 67.5029 76.1793 67.32Z" fill="#263238"/>
<path d="M73.9321 67.5411C73.7189 67.4626 73.5244 67.3406 73.3608 67.183C73.0683 66.9561 72.8523 66.7456 72.8769 66.7155C72.9015 66.6854 73.1503 66.844 73.4483 67.0709C73.7462 67.2978 73.9485 67.5083 73.9321 67.5411Z" fill="#263238"/>
<path d="M72.716 64.2117C72.7379 64.2445 72.5247 64.4359 72.2377 64.6409C71.9506 64.8459 71.6909 64.9853 71.6909 64.9525C71.6909 64.9197 71.8795 64.7284 72.1666 64.5233C72.3267 64.3832 72.5136 64.2772 72.716 64.2117Z" fill="#263238"/>
<path d="M72.2511 62.5248C72.221 62.5494 72.0242 62.3416 71.811 62.0628C71.5978 61.784 71.4529 61.5352 71.483 61.5161C71.513 61.4969 71.7126 61.702 71.9231 61.9808C72.1336 62.2596 72.2839 62.5029 72.2511 62.5248Z" fill="#263238"/>
<path d="M77.1255 58.0417C77.171 57.8042 77.264 57.5783 77.3989 57.3775C77.4928 57.1545 77.6283 56.9513 77.798 56.7788C77.7517 57.0169 77.6588 57.2436 77.5246 57.4458C77.4313 57.6684 77.2958 57.8708 77.1255 58.0417Z" fill="#263238"/>
<path d="M71.0343 58.326C70.7826 58.2519 70.5458 58.1344 70.3345 57.9788C70.0998 57.8613 69.8878 57.703 69.7085 57.5114C69.9615 57.582 70.199 57.6998 70.4083 57.8585C70.6436 57.9751 70.8557 58.1335 71.0343 58.326Z" fill="#263238"/>
<path d="M67.8442 57.5086C67.8798 57.5277 67.7786 57.7628 67.6201 58.028C67.4615 58.2931 67.3057 58.4982 67.2702 58.4763C67.2346 58.4544 67.3385 58.2248 67.4971 57.9569C67.6556 57.689 67.8114 57.4894 67.8442 57.5086Z" fill="#263238"/>
<path d="M71.1631 75.9666C70.6985 75.7762 70.2752 75.4977 69.9165 75.1465C70.1573 75.2224 70.3818 75.343 70.5781 75.5018C70.7988 75.6213 70.9968 75.7786 71.1631 75.9666Z" fill="#263238"/>
<path d="M80.2991 74.9878C80.3291 75.0151 80.1296 75.2775 79.8535 75.5782C79.5774 75.879 79.3341 76.0977 79.3067 76.0703C79.2794 76.043 79.4762 75.7805 79.7523 75.4798C80.0284 75.1791 80.2717 74.9604 80.2991 74.9878Z" fill="#263238"/>
<path d="M74.0912 76.0131C74.0803 75.6487 74.0803 75.284 74.0912 74.9196C74.1267 74.9196 74.2251 75.152 74.2251 75.4664C74.2464 75.6587 74.1989 75.8524 74.0912 76.0131Z" fill="#263238"/>
<path d="M77.3222 76.0647C77.0817 75.9997 76.8555 75.8903 76.6552 75.7422C76.4312 75.6335 76.2299 75.4832 76.062 75.2993C76.5271 75.4717 76.9548 75.7315 77.3222 76.0647Z" fill="#263238"/>
<path d="M83.5852 76.9999C83.5307 77.0059 83.4757 77.0059 83.4211 76.9999L82.951 76.9616L81.2287 76.8086C79.7744 76.6828 77.7652 76.5024 75.5399 76.4668C73.3147 76.4313 71.2945 76.4805 69.8375 76.5352L68.1098 76.609L67.6396 76.6281C67.5852 76.6358 67.53 76.6358 67.4756 76.6281L67.6369 76.6035L68.1071 76.5598C68.5117 76.5243 69.1021 76.4833 69.832 76.4395C71.2918 76.3575 73.3093 76.2864 75.5427 76.3302C77.7761 76.3739 79.7854 76.5625 81.2397 76.7129C81.9641 76.7922 82.5518 76.8605 82.9564 76.9124L83.4239 76.9753C83.4785 76.9768 83.5326 76.9851 83.5852 76.9999Z" fill="#263238"/>
<g opacity="0.2">
<path d="M78.6284 60.431L79.9953 69.5205C79.9953 69.5205 81.261 69.5205 81.4933 69.1433L78.6284 60.431Z" fill="black"/>
<path d="M78.6284 60.431L79.9953 69.5205C79.9953 69.5205 81.261 69.5205 81.4933 69.1433L78.6284 60.431Z" fill="black"/>
</g>
<path d="M70.6928 76.4474C67.4752 76.6962 65.7175 76.4747 62.1773 76.8082C60.9811 76.966 59.8809 77.5466 59.0756 78.4451C58.2703 79.3437 57.8133 80.5007 57.7871 81.707L57.1665 108.445H63.6699L64.6978 84.4735L66.6114 84.7168C66.3653 93.6942 67.303 108.445 67.303 108.445L74.5254 108.093L74.1126 85.0694C74.1126 85.0694 83.8254 85.7283 83.5821 77.0078C83.5848 76.9996 75.936 76.0729 70.6928 76.4474Z" fill="#263238"/>
<path d="M72.6369 76.3792C72.4746 76.4158 72.3103 76.4431 72.1449 76.4612C71.8277 76.5104 71.3685 76.5788 70.8054 76.6827C70.1447 76.7751 69.4977 76.9467 68.8781 77.1939C68.5208 77.3521 68.1898 77.5642 67.8967 77.8226C67.5848 78.1012 67.3319 78.4396 67.1532 78.8177C66.8264 79.5651 66.6678 80.3751 66.6884 81.1905C66.6884 81.945 66.7158 82.6312 66.7103 83.2052C66.7048 83.7793 66.6857 84.244 66.6638 84.5721C66.6638 84.7334 66.642 84.8591 66.631 84.9411C66.6293 84.9845 66.6228 85.0276 66.6119 85.0696C66.6001 84.904 66.6001 84.7377 66.6119 84.5721C66.6119 84.2495 66.6119 83.7875 66.6119 83.2052C66.6119 82.623 66.5791 81.9423 66.5599 81.1905C66.5311 80.3538 66.6909 79.5214 67.0274 78.7548C67.215 78.3607 67.4799 78.0083 67.8065 77.7187C68.1108 77.452 68.4548 77.2344 68.8262 77.0736C69.4581 76.8278 70.1185 76.6625 70.7917 76.5815C71.3576 76.4913 71.8223 76.4366 72.1421 76.4066C72.3007 76.3929 72.4155 76.382 72.5112 76.3792C72.5528 76.3724 72.5953 76.3724 72.6369 76.3792Z" fill="#455A64"/>
<path d="M64.124 82.8005C64.2646 83.0634 64.3825 83.3378 64.4767 83.6206C64.6161 83.8877 64.6918 84.1833 64.6981 84.4845C64.5576 84.2216 64.4396 83.9472 64.3455 83.6644C64.2046 83.3979 64.1288 83.1019 64.124 82.8005Z" fill="#455A64"/>
<path d="M64.654 82.2538C64.7768 82.6053 64.8406 82.9748 64.8426 83.3472C64.885 83.7232 64.8363 84.1039 64.7004 84.4571C64.6567 84.4571 64.7305 83.9596 64.7004 83.3636C64.6704 82.7677 64.6048 82.2538 64.654 82.2538Z" fill="#455A64"/>
<path d="M73.6235 82.7599C73.7894 83.1191 73.8992 83.5017 73.9488 83.8943C74.0399 84.277 74.0994 84.6665 74.1265 85.0589C73.9615 84.6989 73.8545 84.3151 73.8094 83.9217C73.7148 83.5403 73.6526 83.1517 73.6235 82.7599Z" fill="#455A64"/>
<path d="M74.2742 82.7542C74.437 83.5208 74.3937 84.317 74.1484 85.0614C74.1512 84.6758 74.1759 84.2906 74.2222 83.9078C74.2194 83.5226 74.2368 83.1376 74.2742 82.7542Z" fill="#455A64"/>
<path d="M63.5032 106.876C63.5032 106.914 62.0789 106.947 60.3212 106.947C58.5634 106.947 57.1392 106.914 57.1392 106.876C57.1392 106.838 58.5634 106.805 60.3212 106.805C62.0789 106.805 63.5032 106.835 63.5032 106.876Z" fill="#455A64"/>
<path d="M74.438 106.756C74.438 106.794 72.8169 106.827 70.8186 106.827C68.8203 106.827 67.1992 106.794 67.1992 106.756C67.1992 106.718 68.8203 106.685 70.8186 106.685C72.8169 106.685 74.438 106.718 74.438 106.756Z" fill="#455A64"/>
<path d="M82.721 81.0017H82.6308H82.3575H81.3187L77.4915 81.0209H74.8535C74.3685 81.0193 73.885 81.0743 73.4129 81.1849C72.9154 81.2982 72.4699 81.5743 72.1472 81.9695C71.8413 82.4111 71.6781 82.9358 71.6797 83.473C71.6524 84.0197 71.7125 84.5911 71.7344 85.1733C71.7635 86.3361 71.7954 87.5343 71.83 88.7681C71.9695 93.6888 72.0843 98.1474 72.1253 101.376C72.1472 102.989 72.1526 104.295 72.1526 105.203C72.1526 105.648 72.1526 105.995 72.1526 106.245C72.1526 106.357 72.1526 106.444 72.1526 106.518C72.1569 106.549 72.1569 106.58 72.1526 106.611C72.149 106.58 72.149 106.549 72.1526 106.518C72.1526 106.45 72.1526 106.362 72.1526 106.245C72.1526 105.996 72.1526 105.649 72.1335 105.203C72.1143 104.293 72.0897 102.989 72.0597 101.376C71.9913 98.1501 71.8628 93.6915 71.7234 88.7681C71.6906 87.538 71.6606 86.3379 71.6305 85.1761C71.6086 84.5993 71.5512 84.0279 71.5813 83.4621C71.5808 82.8985 71.7546 82.3485 72.0788 81.8875C72.4197 81.4718 72.8906 81.1829 73.4156 81.0674C73.8988 80.956 74.3932 80.901 74.889 80.9033H77.527L81.3542 80.9307L82.393 80.9471H82.6664C82.6864 80.9634 82.7047 80.9817 82.721 81.0017Z" fill="#455A64"/>
<path opacity="0.2" d="M65.8433 84.6103C65.8433 84.6103 65.5918 81.3709 66.8083 79.5093L66.6142 84.7033L65.8433 84.6103Z" fill="black"/>
<path d="M66.3683 81.5296C66.3447 81.5332 66.3207 81.5332 66.2972 81.5296L66.084 81.4913C65.8953 81.4558 65.622 81.4011 65.2639 81.3601C64.8327 81.3071 64.3954 81.333 63.9736 81.4366C63.7125 81.5055 63.4661 81.6213 63.2464 81.7783C63.0058 81.9573 62.8132 82.193 62.686 82.4645C62.4126 83.0386 62.3798 83.7575 62.3634 84.512C62.347 85.2665 62.3251 86.0811 62.3033 86.9341C62.2568 88.6399 62.2076 90.5152 62.1557 92.4834C62.0408 96.4145 61.9342 99.9737 61.8577 102.565C61.8139 103.845 61.7757 104.886 61.7511 105.619C61.7347 105.971 61.7237 106.25 61.7155 106.439C61.7155 106.526 61.7155 106.597 61.7019 106.655C61.7054 106.679 61.7054 106.704 61.7019 106.729C61.6977 106.704 61.6977 106.679 61.7019 106.655C61.7019 106.597 61.7019 106.526 61.7019 106.439C61.7019 106.237 61.7019 105.958 61.7019 105.619C61.7155 104.883 61.7374 103.845 61.762 102.563C61.8276 99.971 61.9206 96.4117 62.019 92.478C62.0764 90.5097 62.1283 88.6371 62.1775 86.9313C62.2021 86.0784 62.2267 85.2665 62.2513 84.5093C62.2759 83.7521 62.3033 83.0194 62.6012 82.4207C62.7386 82.1362 62.9443 81.8902 63.1999 81.7045C63.4288 81.5438 63.6856 81.427 63.9572 81.3601C64.3899 81.2585 64.8379 81.2399 65.2775 81.3054C65.6356 81.3546 65.909 81.4202 66.0976 81.4612L66.3081 81.5159C66.3464 81.5186 66.371 81.5268 66.3683 81.5296Z" fill="#455A64"/>
<path d="M65.8654 60.9095C65.8654 60.9095 59.0011 67.7957 57.6917 69.3347C56.5736 70.6496 57.3035 73.1291 58.2384 73.2357C59.1733 73.3423 74.307 73.1373 74.307 73.1373L74.1074 70.0427C74.1074 70.0427 64.3044 70.0865 64.0174 69.9061C63.7304 69.7256 69.6871 63.7033 69.6871 63.7033L65.8654 60.9095Z" fill="#FFBE9D"/>
<path d="M84.0165 61.8087C84.0165 61.8087 86.1024 68.1318 86.3539 68.8781C86.6054 69.6243 87.9011 72.7872 85.4408 73.0524C82.9805 73.3175 69.7768 73.0524 69.7768 73.0524L68.7954 69.8567C68.7954 69.8567 81.5562 69.8239 81.4934 69.1432C81.4305 68.4625 79.5552 62.7519 79.5552 62.7519L84.0165 61.8087Z" fill="#FFBE9D"/>
<path d="M56.1528 59.8377L60.8958 72.9758L82.7297 72.9676L82.5793 72.3252L74.3865 72.0245L70.3543 59.6354L56.1528 59.8377Z" fill="#263238"/>
<path d="M65.8845 65.8192C65.8875 65.9671 65.848 66.1128 65.7707 66.2389C65.6935 66.3651 65.5816 66.4664 65.4485 66.531C65.3154 66.5955 65.1666 66.6205 65.0197 66.6031C64.8728 66.5856 64.7339 66.5263 64.6197 66.4324C64.5054 66.3384 64.4205 66.2137 64.3749 66.0729C64.3294 65.9321 64.3252 65.7813 64.3628 65.6382C64.4004 65.4951 64.4782 65.3658 64.5871 65.2656C64.6959 65.1654 64.8312 65.0986 64.9769 65.0729C65.1959 65.053 65.414 65.1202 65.5838 65.2599C65.7537 65.3995 65.8617 65.6005 65.8845 65.8192Z" fill="#FAFAFA"/>
<path d="M94.0224 72.6886H42.4433H41.8829H41.3252V110.411H42.4433V74.9111H94.0224V110.438H107.207V74.9111V72.6886H94.0224Z" fill="#455A64"/>
<path d="M30.5595 108.937V106.113L25.5022 106.081L25.4585 110.304L25.7729 110.326C27.1698 110.416 32.8804 110.599 33.8099 110.301C34.8569 109.979 30.5595 108.937 30.5595 108.937Z" fill="#6A5AE0"/>
<path d="M33.9306 110.044C33.9306 110.091 32.0389 110.129 29.7043 110.129C27.3697 110.129 25.478 110.091 25.478 110.044C25.478 109.998 27.3697 109.957 29.7043 109.957C32.0389 109.957 33.9306 109.995 33.9306 110.044Z" fill="#263238"/>
<path d="M30.6505 109.514C30.6095 109.492 30.6505 109.342 30.7516 109.197C30.8528 109.052 30.9949 108.97 31.025 109.003C31.0551 109.036 30.9895 109.162 30.8883 109.298C30.7872 109.435 30.6915 109.536 30.6505 109.514Z" fill="#263238"/>
<path d="M30.9726 109.7C30.9288 109.684 30.9507 109.517 31.0518 109.342C31.153 109.167 31.2815 109.069 31.3252 109.088C31.3689 109.107 31.3006 109.26 31.2077 109.424C31.1147 109.588 31.03 109.716 30.9726 109.7Z" fill="#263238"/>
<path d="M27.0005 110.025C26.9814 110.039 26.9048 109.965 26.7955 109.839C26.6627 109.678 26.5144 109.529 26.3526 109.396C26.1945 109.27 26.006 109.187 25.8059 109.156C25.6501 109.134 25.5517 109.156 25.5325 109.134C25.5134 109.112 25.6173 109.047 25.8059 109.036C26.0417 109.03 26.2715 109.11 26.4538 109.26C26.6295 109.401 26.7777 109.573 26.8912 109.768C26.9814 109.913 27.0196 110.011 27.0005 110.025Z" fill="#263238"/>
<path d="M30.6639 108.984C30.6913 109.025 30.6038 109.12 30.4589 109.175C30.314 109.23 30.1855 109.208 30.1855 109.161C30.1855 109.115 30.2812 109.06 30.407 109.014C30.5327 108.967 30.6393 108.943 30.6639 108.984Z" fill="#263238"/>
<path d="M30.5847 108.711C30.5847 108.757 30.4562 108.798 30.2839 108.801C30.1117 108.803 29.9778 108.765 29.9805 108.719C29.9832 108.672 30.1199 108.631 30.2839 108.629C30.448 108.626 30.5819 108.664 30.5847 108.711Z" fill="#263238"/>
<path d="M45.2453 24.718L45.2918 23.8624C45.3751 23.3887 45.4108 22.9079 45.3984 22.4272C45.3977 22.1883 45.3552 21.9515 45.2727 21.7274C45.1822 21.4433 45.0534 21.1729 44.8899 20.9237C44.8491 20.8825 44.8224 20.8295 44.8137 20.7721C44.8049 20.7148 44.8147 20.6562 44.8414 20.6048C44.8682 20.5534 44.9107 20.5118 44.9626 20.486C45.0146 20.4603 45.0734 20.4518 45.1305 20.4617C45.3711 20.5245 45.8631 21.0959 46.0873 21.9488C46.3115 22.8017 46.8855 21.5387 47.1015 21.0822C47.3174 20.6257 48.061 19.2452 48.2524 19.2014C48.5257 19.1358 48.6597 19.4283 48.4301 19.8794C48.2004 20.3304 47.61 21.7301 47.8615 21.834C48.0398 21.7866 48.2263 21.7782 48.4082 21.8094C48.4369 21.8157 48.4629 21.8306 48.4829 21.8521C48.503 21.8736 48.516 21.9006 48.5203 21.9297C48.531 22.0635 48.5576 22.1957 48.5995 22.3233C48.5995 22.3233 48.9385 22.214 49.0233 22.3588C49.0861 22.5093 49.1239 22.6691 49.1353 22.8318C49.1353 22.8318 49.3923 22.7197 49.529 22.8072C49.8215 22.9985 49.5044 23.4004 49.5044 23.4004C48.8073 24.4039 48.0467 25.3617 47.2272 26.268L45.2398 24.6688" fill="#FFBE9D"/>
<path d="M20.9293 24.6605L20.8965 35.5652L25.5629 35.7812L25.6968 33.1295C25.6968 33.1295 27.3589 33.4603 27.7881 31.9157C28.0615 30.9316 27.9931 23.3128 27.9931 23.3128L20.9293 24.6605Z" fill="#FFBE9D"/>
<path d="M27.7499 21.6291C26.3256 22.0883 25.9839 22.2441 25.3443 22.2933C24.7046 22.3426 20.3744 22.348 19.978 24.7892C19.9247 24.6744 19.8834 24.5544 19.855 24.4311C19.8231 24.1918 19.8057 23.9508 19.8031 23.7094C19.7344 23.8212 19.6913 23.9468 19.6766 24.0772C19.662 24.2076 19.6762 24.3396 19.7183 24.4639C19.7293 24.5171 19.7448 24.5692 19.7648 24.6197C19.7347 24.5924 19.7074 24.5623 19.6746 24.535C19.5174 24.3959 19.3304 24.2949 19.1279 24.2397C18.972 24.2015 18.8709 24.2097 18.8545 24.2397C19.1091 24.3495 19.3503 24.488 19.5734 24.6525C19.7184 24.7783 19.8429 24.9259 19.9425 25.0899C19.9425 25.0899 19.9425 25.1118 19.9425 25.1227C19.9425 25.1336 19.0103 24.7127 19.2563 26.4021C19.5024 28.0915 20.604 29.5267 20.7407 32.2932C20.7407 32.2932 24.6034 32.7524 25.2923 31.268L25.8691 29.5649C25.8691 29.5649 24.9397 29.4119 25.049 28.6656C25.1994 27.6295 25.9894 27.6049 26.5799 28.0641L27.2578 26.249C27.2578 26.249 28.9746 25.1227 29.073 24.4038C29.1714 23.6848 29.1605 21.1671 27.7499 21.6291Z" fill="#263238"/>
<path d="M7.98811 106.827L7.30469 109.878L12.0258 110.463L12.1952 107.439L7.98811 106.827Z" fill="#6A5AE0"/>
<path d="M10.1205 106.977C10.1178 107.448 10.0665 107.917 9.9674 108.377C9.91393 108.841 9.81411 109.299 9.66943 109.744C9.72655 108.805 9.87766 107.875 10.1205 106.966V106.977Z" fill="#263238"/>
<path d="M12.0446 110.137C11.8147 110.13 11.586 110.101 11.3612 110.052L9.721 109.779C9.07858 109.673 8.50178 109.566 8.08079 109.473C7.85354 109.435 7.63089 109.374 7.4165 109.29C7.64665 109.294 7.87572 109.322 8.09992 109.375L9.74013 109.648C10.3798 109.755 10.9594 109.861 11.3803 109.954C11.6082 109.989 11.8311 110.05 12.0446 110.137Z" fill="#263238"/>
<path d="M14.9914 58.8754L6.24365 107.994L13.7285 108.418C13.7285 108.418 21.678 66.0786 22.8453 65.9748C23.3346 65.9283 23.5315 108.073 23.9224 107.994C24.3133 107.915 32.0113 108.131 32.0113 108.131C32.0113 108.131 30.9698 58.2521 30.9889 58.2521L14.9914 58.8754Z" fill="#263238"/>
<path d="M26.0491 64.9414C26.0491 64.9797 24.7588 65.2886 23.1514 65.6303C21.544 65.972 20.2319 66.218 20.2237 66.177C20.2155 66.136 21.514 65.8298 23.1214 65.4881C24.7288 65.1464 26.0409 64.9031 26.0491 64.9414Z" fill="#455A64"/>
<path d="M14.2836 105.534C14.2836 105.575 12.5915 105.553 10.5057 105.49C8.41988 105.427 6.73047 105.34 6.73047 105.302C6.73047 105.263 8.42262 105.282 10.5084 105.345C12.5942 105.408 14.2836 105.49 14.2836 105.534Z" fill="#455A64"/>
<path d="M31.9622 105.54C31.9622 105.578 30.1334 105.556 27.8835 105.488C25.6337 105.419 23.8076 105.335 23.8076 105.296C23.8076 105.258 25.6337 105.28 27.8863 105.345C30.1388 105.411 31.9622 105.49 31.9622 105.54Z" fill="#455A64"/>
<path d="M18.7285 66.303C18.7668 66.303 16.9161 75.0726 14.5925 85.8707C12.2688 96.6687 10.3553 105.419 10.317 105.411C10.2787 105.403 12.1294 96.6441 14.453 85.8406C16.7767 75.0371 18.6875 66.2948 18.7285 66.303Z" fill="#455A64"/>
<path d="M27.9167 105.416C27.9136 105.383 27.9136 105.349 27.9167 105.315C27.9167 105.241 27.9167 105.143 27.9003 105.017C27.9003 104.744 27.873 104.364 27.8511 103.872C27.8101 102.88 27.7636 101.439 27.7117 99.6593C27.6078 96.1055 27.5039 91.1848 27.4793 85.7558C27.4547 80.3267 27.5067 75.4088 27.5778 71.8495C27.6106 70.0699 27.6461 68.632 27.6789 67.6369C27.6953 67.1448 27.7062 66.7621 27.7172 66.4915C27.7172 66.3657 27.7172 66.2673 27.7172 66.1935C27.7135 66.1599 27.7135 66.126 27.7172 66.0924C27.7215 66.126 27.7215 66.1599 27.7172 66.1935V66.4915C27.7172 66.7649 27.7172 67.1448 27.7172 67.6369C27.7035 68.6402 27.6844 70.0781 27.6598 71.8522C27.616 75.406 27.5778 80.3267 27.6051 85.7558C27.6324 91.1848 27.7172 96.1 27.7937 99.6593C27.8347 101.431 27.8675 102.869 27.8921 103.872C27.8921 104.361 27.9085 104.747 27.914 105.017C27.914 105.143 27.914 105.241 27.914 105.315C27.9192 105.349 27.9201 105.383 27.9167 105.416Z" fill="#455A64"/>
<path d="M44.4607 24.4718C44.4607 24.4718 38.6653 33.2196 38.1733 33.7035C37.6812 34.1873 28.6054 35.1496 28.6054 35.1496C25.817 34.5208 16.8068 34.7286 15.1065 35.9697C13.633 36.7898 11.8452 38.7034 10.9239 43.2222C9.35206 50.953 7.78019 53.8015 10.9239 54.8813C12.1808 55.3099 13.4762 55.6157 14.7921 55.7944L14.7046 59.2935L30.9973 58.2793L30.1772 49.5916C30.0788 47.1505 30.0324 44.6081 29.9722 42.3556C30.9919 41.9701 40.4668 38.3835 41.1174 38.2906C41.7681 38.1976 48.009 26.7189 48.009 26.7189C48.1949 25.3548 44.4607 24.4718 44.4607 24.4718Z" fill="#6A5AE0"/>
<path d="M15.2407 40.2918C15.279 40.2918 15.1915 44.5509 15.0466 49.7995C14.9018 55.0482 14.7487 59.3045 14.7077 59.3045C14.6667 59.3045 14.7569 55.0455 14.9045 49.7968C15.0521 44.5481 15.2025 40.2918 15.2407 40.2918Z" fill="#263238"/>
<path d="M38.9909 35.6719C38.7736 35.3847 38.6122 35.0592 38.5152 34.7123C38.3757 34.3856 38.2623 34.0483 38.1763 33.7036C38.3921 33.9913 38.5525 34.3167 38.6492 34.6631C38.7869 34.9908 38.9011 35.3279 38.9909 35.6719Z" fill="#263238"/>
<path d="M39.6415 34.9284C39.365 34.7726 39.1049 34.5895 38.8652 34.3816C38.5929 34.208 38.3586 33.9811 38.1763 33.7146C38.4518 33.8718 38.7118 34.0549 38.9526 34.2613C39.2233 34.4369 39.4573 34.6634 39.6415 34.9284Z" fill="#263238"/>
<path d="M47.6835 27.4163C47.4909 27.3241 47.3078 27.2134 47.1368 27.0856C46.8033 26.8751 46.3413 26.5908 45.8109 26.3065C45.2806 26.0222 44.7885 25.7953 44.4277 25.6367C44.2261 25.5646 44.032 25.473 43.8481 25.3633C44.0606 25.3984 44.268 25.4589 44.466 25.5438C45.4386 25.9065 46.3581 26.3984 47.1996 27.0063C47.3775 27.1221 47.54 27.2599 47.6835 27.4163Z" fill="#263238"/>
<path d="M15.0467 49.8407C14.7072 49.861 14.3666 49.8268 14.0379 49.7395C13.6995 49.6929 13.373 49.5825 13.0757 49.4142C13.4113 49.4465 13.7434 49.5087 14.068 49.6001C14.4023 49.6427 14.7307 49.7234 15.0467 49.8407Z" fill="#263238"/>
<path d="M30.0953 35.0269C29.7998 35.0776 29.5077 35.146 29.2205 35.232C28.5349 35.4564 27.939 35.8943 27.52 36.4815C27.1009 37.0688 26.8807 37.7746 26.8914 38.496C26.9058 38.7953 26.9359 39.0937 26.9816 39.3899C26.9392 39.3191 26.9095 39.2414 26.8942 39.1603C26.8342 38.9445 26.7993 38.7225 26.7903 38.4987C26.7529 37.7498 26.9696 37.0101 27.4052 36.3998C27.8409 35.7895 28.47 35.3442 29.1905 35.1363C29.4048 35.0716 29.6258 35.0312 29.8493 35.016C29.9312 35.0044 30.0147 35.0081 30.0953 35.0269Z" fill="#263238"/>
<path d="M31.0003 58.2903C31.0003 58.3313 27.3563 58.5883 22.8594 58.8671C18.3625 59.1459 14.7103 59.3428 14.7075 59.3045C14.7048 59.2662 18.3515 59.0065 22.8512 58.725C27.3508 58.4434 30.9975 58.252 31.0003 58.2903Z" fill="#263238"/>
<path d="M24.5102 34.8545C24.5337 34.92 24.5502 34.9878 24.5594 35.0568C24.5594 35.1251 24.5922 35.2071 24.6032 35.3055C24.6141 35.404 24.6223 35.5215 24.636 35.65C24.6684 36.3883 24.5484 37.1253 24.2833 37.8151C23.8955 38.8499 23.1829 39.7313 22.2522 40.3273C22.1191 40.4117 21.9803 40.4866 21.8367 40.5515C21.6929 40.6214 21.545 40.6826 21.3938 40.7346C21.0904 40.844 20.776 40.9369 20.4644 41.049C20.1479 41.1528 19.8451 41.2941 19.5623 41.47C19.2797 41.6613 19.0295 41.8966 18.8214 42.1671C18.4316 42.7298 18.0721 43.3129 17.7444 43.9139C17.4298 44.4886 16.9686 44.9697 16.4076 45.3081C15.8767 45.5764 15.2796 45.6856 14.6881 45.6225C14.1778 45.5758 13.6808 45.434 13.2229 45.2042C12.5646 44.8713 11.9668 44.4306 11.4542 43.9002C11.271 43.7171 11.1343 43.5695 11.0441 43.4711C10.9931 43.4229 10.9481 43.3688 10.9102 43.3098C10.9639 43.3531 11.0151 43.3997 11.0632 43.4492L11.4924 43.862C12.0129 44.37 12.6097 44.7934 13.2611 45.1167C13.711 45.3326 14.1964 45.4651 14.6936 45.5077C15.2593 45.5601 15.8283 45.45 16.3338 45.1905C16.8736 44.8624 17.3161 44.3962 17.6159 43.8401C17.9471 43.2332 18.3122 42.6455 18.7093 42.0796C18.9274 41.7971 19.1895 41.5516 19.4857 41.3525C19.7775 41.1694 20.0906 41.0225 20.4179 40.9151L21.3474 40.6062C21.4958 40.5559 21.6409 40.4966 21.782 40.4285C21.9215 40.3684 22.0559 40.2971 22.1839 40.2152C23.0985 39.639 23.8038 38.7842 24.1958 37.7768C24.4661 37.1018 24.599 36.3797 24.5868 35.6527C24.5868 35.5242 24.5868 35.4122 24.5704 35.311C24.554 35.2099 24.5458 35.1279 24.5376 35.0623C24.5223 34.9939 24.5132 34.9244 24.5102 34.8545Z" fill="#263238"/>
<path d="M30.6802 54.9553C30.6802 54.9553 30.6173 54.9116 30.497 54.8378C30.3253 54.7268 30.1343 54.6489 29.9339 54.6081C29.6115 54.5598 29.2865 54.5306 28.9607 54.5207C28.5807 54.4906 28.1406 54.4879 27.6622 54.4687C27.1322 54.4597 26.6053 54.3863 26.0931 54.25C25.505 54.0828 24.9502 53.8156 24.4529 53.46C23.8996 53.0655 23.4412 52.5529 23.1106 51.9592C22.7572 51.3205 22.5692 50.6034 22.5639 49.8734C22.5534 49.1649 22.742 48.4676 23.1083 47.8611C23.4747 47.2545 24.004 46.7631 24.636 46.4426C24.9202 46.3007 25.223 46.1995 25.5354 46.1419C25.8272 46.0931 26.1226 46.0694 26.4184 46.0709C26.941 46.0869 27.4641 46.0714 27.9848 46.0244C28.3601 46.0004 28.7236 45.8837 29.0428 45.6848C29.3619 45.4858 29.6268 45.2108 29.8136 44.8844C29.9052 44.7014 29.9626 44.5031 29.9831 44.2994C29.9995 44.16 29.9995 44.0835 30.005 44.0835C30.0083 44.1015 30.0083 44.1201 30.005 44.1381C30.005 44.1764 30.005 44.2311 30.005 44.3022C29.9937 44.5121 29.9427 44.7181 29.8546 44.909C29.7108 45.2113 29.4902 45.4705 29.2149 45.6608C28.8528 45.9148 28.4326 46.0737 27.993 46.1228C27.4682 46.1777 26.9405 46.1996 26.4129 46.1884C26.1233 46.1898 25.8344 46.2154 25.5491 46.2649C25.2497 46.3229 24.9599 46.4222 24.688 46.5602C24.0803 46.8707 23.5716 47.3451 23.2194 47.9296C22.8673 48.5142 22.6856 49.1856 22.6951 49.8679C22.7018 50.5749 22.8841 51.2691 23.2254 51.8881C23.5446 52.4642 23.9871 52.9627 24.5212 53.3479C25.0047 53.698 25.5447 53.9625 26.1177 54.1297C26.6203 54.2694 27.138 54.3474 27.6595 54.3621C28.1406 54.3867 28.578 54.3977 28.9607 54.4359C29.2891 54.4507 29.6161 54.4882 29.9394 54.548C30.1443 54.6006 30.3367 54.6935 30.5052 54.8214C30.5498 54.8528 30.5927 54.8865 30.6337 54.9225C30.651 54.9307 30.6667 54.9418 30.6802 54.9553Z" fill="#263238"/>
<path d="M21.6267 58.9574C21.6341 58.7618 21.6231 58.5659 21.5939 58.3724C21.4924 57.8474 21.1904 57.3826 20.7519 57.0766C20.6075 56.981 20.4513 56.9047 20.2872 56.8497C20.1083 56.7994 19.9253 56.7647 19.7404 56.7458C19.3089 56.7361 18.8798 56.6783 18.4611 56.5736C18.2311 56.4967 18.021 56.3697 17.846 56.2018C17.6694 56.0242 17.5284 55.8145 17.4305 55.584C17.2326 55.1005 17.1712 54.5719 17.2528 54.0559C17.4059 53.0034 17.8679 52.0986 17.9471 51.2074C18.003 50.7914 17.9647 50.3682 17.8351 49.969C17.7166 49.6254 17.4951 49.3267 17.2008 49.1134C16.7694 48.7976 16.2331 48.6597 15.7028 48.7279C15.5108 48.7642 15.3223 48.8172 15.1396 48.8865C15.3046 48.7773 15.491 48.7046 15.6864 48.6733C16.2353 48.5805 16.7987 48.7093 17.2528 49.0314C17.5688 49.2533 17.8084 49.5674 17.9389 49.9307C18.0802 50.3453 18.125 50.7866 18.0702 51.221C17.9909 52.1423 17.5234 53.0581 17.3867 54.075C17.3082 54.5657 17.3649 55.0685 17.5508 55.5293C17.6422 55.7433 17.7719 55.9387 17.9335 56.1061C18.0926 56.2602 18.284 56.3769 18.4939 56.4478C18.9036 56.5524 19.3233 56.6129 19.7459 56.6283C19.9425 56.6484 20.1366 56.6878 20.3254 56.7458C20.6747 56.8666 20.9838 57.0817 21.2183 57.3673C21.4528 57.653 21.6036 57.998 21.654 58.3642C21.674 58.5111 21.674 58.6601 21.654 58.807C21.6496 58.8579 21.6404 58.9082 21.6267 58.9574Z" fill="#263238"/>
<path d="M21.0796 43.8321C21.0796 43.8321 21.137 43.7719 21.2737 43.7309C21.4697 43.6799 21.6771 43.6943 21.8642 43.7719C21.9953 43.8258 22.1129 43.908 22.2086 44.0125C22.3166 44.1374 22.3851 44.2915 22.4054 44.4553C22.4302 44.6437 22.3985 44.8352 22.3143 45.0056C22.2301 45.1759 22.0972 45.3174 21.9325 45.4121C21.7609 45.4937 21.5687 45.5216 21.381 45.4924C21.1933 45.4631 21.0187 45.378 20.8801 45.2481C20.7588 45.1345 20.6749 44.9867 20.6395 44.8244C20.6123 44.6845 20.6189 44.5402 20.6586 44.4034C20.7128 44.2073 20.8336 44.0362 21.0003 43.9195C21.0567 43.872 21.1264 43.8433 21.1999 43.8375C21.1999 43.8375 21.1343 43.8785 21.0331 43.9633C20.8958 44.0859 20.8002 44.2484 20.7598 44.428C20.7246 44.5567 20.726 44.6925 20.7636 44.8205C20.8013 44.9484 20.8738 45.0633 20.973 45.1524C21.0927 45.2604 21.2417 45.3307 21.4011 45.3546C21.5606 45.3784 21.7236 45.3547 21.8696 45.2864C22.0102 45.2042 22.1238 45.0829 22.1966 44.9373C22.2694 44.7917 22.2983 44.628 22.2797 44.4663C22.264 44.3342 22.2138 44.2085 22.1342 44.102C22.0545 43.9955 21.9482 43.9118 21.8259 43.8594C21.656 43.778 21.4652 43.7503 21.2792 43.7801C21.1534 43.8075 21.0851 43.843 21.0796 43.8321Z" fill="#263238"/>
<path d="M12.8841 55.4855C12.8541 55.4855 12.9826 55.0044 13.0126 54.2226C13.0234 54.0104 13.0234 53.7978 13.0126 53.5856C13.0126 53.356 12.9689 53.1127 12.9388 52.8557C12.8481 52.3032 12.7025 51.761 12.5042 51.2374C12.2972 50.7181 12.037 50.2215 11.7278 49.7557C11.5893 49.555 11.4406 49.3616 11.2822 49.1762C11.148 49.0099 11.0047 48.8511 10.853 48.7005C10.3063 48.1538 9.8853 47.8804 9.90444 47.8613C10.0083 47.9093 10.1065 47.9689 10.1969 48.039C10.3103 48.1113 10.419 48.1907 10.5222 48.2768C10.6627 48.3867 10.7969 48.5045 10.9241 48.6295C11.0829 48.777 11.2326 48.934 11.3724 49.0997C11.5354 49.2877 11.6887 49.4838 11.8317 49.6874C12.1513 50.1587 12.4198 50.6627 12.6326 51.1909C12.8339 51.7207 12.9778 52.2706 13.0618 52.8311C13.0966 53.0776 13.1176 53.3259 13.1247 53.5747C13.1387 53.7904 13.1387 54.0068 13.1247 54.2226C13.1147 54.4002 13.0956 54.5772 13.0673 54.7529C13.0507 54.8866 13.0251 55.019 12.9908 55.1493C12.9693 55.2654 12.9335 55.3783 12.8841 55.4855Z" fill="#263238"/>
<path d="M41.2483 38.1815C41.1082 38.1315 40.9721 38.0712 40.841 38.001C40.5813 37.8808 40.2067 37.7085 39.7256 37.5336C39.1671 37.3267 38.5878 37.1809 37.9979 37.0989C37.2779 36.9957 36.5447 37.0319 35.8383 37.2055C35.1259 37.3713 34.4674 37.7156 33.9247 38.2061C33.4867 38.6059 33.1518 39.1058 32.9488 39.6631C32.8154 40.0399 32.7596 40.4397 32.7848 40.8386C32.8067 41.112 32.8504 41.276 32.8367 41.2787C32.8231 41.2815 32.8176 41.2432 32.7957 41.1694C32.7666 41.0626 32.7446 40.9539 32.7301 40.8441C32.6819 40.4352 32.7249 40.0207 32.8559 39.6303C33.0496 39.049 33.3872 38.5262 33.8373 38.1104C34.3876 37.6007 35.0597 37.2411 35.7891 37.0661C36.5138 36.8898 37.2659 36.8564 38.0034 36.9677C38.6008 37.0586 39.186 37.2172 39.7475 37.4406C40.1221 37.5885 40.4873 37.7592 40.841 37.9518C40.9667 38.0202 41.0651 38.0749 41.128 38.1159C41.1719 38.13 41.2127 38.1522 41.2483 38.1815Z" fill="#263238"/>
<path d="M43.4876 25.9398C43.4876 25.9398 43.5149 25.9589 43.5614 26.0054C43.6297 26.0695 43.6928 26.139 43.75 26.2132C43.9662 26.4845 44.137 26.7892 44.2557 27.1153C44.4345 27.6009 44.5081 28.119 44.4717 28.6352C44.4296 29.2694 44.2253 29.8822 43.8785 30.4148C43.523 30.9441 43.0334 31.3695 42.4597 31.6477C41.9978 31.8786 41.4936 32.0126 40.978 32.0414C40.6316 32.0636 40.2839 32.0313 39.9474 31.9457C39.8544 31.924 39.763 31.8957 39.6741 31.8609C39.6139 31.8391 39.5839 31.8254 39.5866 31.8199C40.034 31.9261 40.4944 31.9666 40.9534 31.9402C41.4532 31.8987 41.9399 31.7594 42.3859 31.5302C42.9369 31.2578 43.4079 30.8471 43.7527 30.3383C44.0555 29.87 44.2487 29.3394 44.3178 28.7861C44.3869 28.2328 44.3302 27.671 44.1518 27.1426C43.9923 26.7105 43.7683 26.305 43.4876 25.9398Z" fill="#263238"/>
<path d="M25.6393 34.8164C24.85 34.8946 24.0567 34.9247 23.2638 34.9066C22.4716 34.9363 21.6783 34.9189 20.8882 34.8547C21.6775 34.7765 22.4708 34.7464 23.2638 34.7645C24.0559 34.7348 24.8492 34.7522 25.6393 34.8164Z" fill="#263238"/>
</svg>
